Idiqlat-Regular.ufo
<glyph name="asterisk" format="2">
  <advance width="747"/>
  <unicode hex="002A"/>
  <outline>
    <contour>
      <point x="355" y="616" type="curve"/>
      <point x="300" y="616"/>
      <point x="284" y="581"/>
      <point x="284" y="533" type="curve" smooth="yes"/>
      <point x="284" y="467"/>
      <point x="315" y="380"/>
      <point x="315" y="343" type="curve" smooth="yes"/>
      <point x="315" y="331"/>
      <point x="312" y="324"/>
      <point x="304" y="324" type="curve" smooth="yes"/>
      <point x="268" y="324"/>
      <point x="154" y="466"/>
      <point x="81" y="466" type="curve" smooth="yes"/>
      <point x="49" y="466"/>
      <point x="23" y="427"/>
      <point x="23" y="385" type="curve" smooth="yes"/>
      <point x="23" y="278"/>
      <point x="245" y="288"/>
      <point x="245" y="231" type="curve" smooth="yes"/>
      <point x="245" y="200"/>
      <point x="21" y="126"/>
      <point x="21" y="51" type="curve" smooth="yes"/>
      <point x="21" y="19"/>
      <point x="64" y="-6"/>
      <point x="91" y="-6" type="curve" smooth="yes"/>
      <point x="174" y="-6"/>
      <point x="260" y="133"/>
      <point x="292" y="133" type="curve" smooth="yes"/>
      <point x="301" y="133"/>
      <point x="303" y="124"/>
      <point x="303" y="109" type="curve" smooth="yes"/>
      <point x="303" y="71"/>
      <point x="283" y="-4"/>
      <point x="283" y="-66" type="curve" smooth="yes"/>
      <point x="283" y="-124"/>
      <point x="299" y="-166"/>
      <point x="358" y="-166" type="curve" smooth="yes"/>
      <point x="414" y="-166"/>
      <point x="430" y="-118"/>
      <point x="430" y="-64" type="curve" smooth="yes"/>
      <point x="430" y="0"/>
      <point x="408" y="78"/>
      <point x="408" y="111" type="curve" smooth="yes"/>
      <point x="408" y="122"/>
      <point x="411" y="126"/>
      <point x="417" y="126" type="curve" smooth="yes"/>
      <point x="450" y="126"/>
      <point x="561" y="-7"/>
      <point x="637" y="-7" type="curve" smooth="yes"/>
      <point x="660" y="-7"/>
      <point x="700" y="15"/>
      <point x="700" y="70" type="curve" smooth="yes"/>
      <point x="700" y="174"/>
      <point x="468" y="189"/>
      <point x="468" y="224" type="curve" smooth="yes"/>
      <point x="468" y="258"/>
      <point x="710" y="295"/>
      <point x="710" y="387" type="curve" smooth="yes"/>
      <point x="710" y="424"/>
      <point x="669" y="462"/>
      <point x="635" y="462" type="curve" smooth="yes"/>
      <point x="554" y="462"/>
      <point x="456" y="325"/>
      <point x="417" y="325" type="curve" smooth="yes"/>
      <point x="403" y="325"/>
      <point x="399" y="339"/>
      <point x="399" y="358" type="curve" smooth="yes"/>
      <point x="399" y="400"/>
      <point x="419" y="473"/>
      <point x="419" y="530" type="curve" smooth="yes"/>
      <point x="419" y="578"/>
      <point x="405" y="615"/>
    </contour>
    <contour>
      <point x="292" y="231" type="curve" smooth="yes"/>
      <point x="292" y="265"/>
      <point x="324" y="299"/>
      <point x="358" y="299" type="curve" smooth="yes"/>
      <point x="396" y="299"/>
      <point x="427" y="263"/>
      <point x="427" y="225" type="curve" smooth="yes"/>
      <point x="427" y="190"/>
      <point x="396" y="159"/>
      <point x="361" y="159" type="curve" smooth="yes"/>
      <point x="324" y="159"/>
      <point x="292" y="194"/>
    </contour>
  </outline>
</glyph>
<glyph name="two" format="2">
  <advance width="791"/>
  <unicode hex="0032"/>
  <anchor x="468" y="-75" name="L"/>
  <anchor x="468" y="1147" name="U"/>
  <outline>
    <contour>
      <point x="84" y="0" type="line"/>
      <point x="709" y="0" type="line"/>
      <point x="709" y="166" type="line"/>
      <point x="658" y="156"/>
      <point x="615" y="156"/>
      <point x="490" y="156" type="curve" smooth="yes"/>
      <point x="320" y="156" type="line"/>
      <point x="460" y="269"/>
      <point x="681" y="471"/>
      <point x="681" y="678" type="curve" smooth="yes"/>
      <point x="681" y="843"/>
      <point x="556" y="946"/>
      <point x="371" y="946" type="curve" smooth="yes"/>
      <point x="264" y="946"/>
      <point x="139" y="893"/>
      <point x="82" y="822" type="curve"/>
      <point x="122" y="669" type="line"/>
      <point x="179" y="738"/>
      <point x="277" y="787"/>
      <point x="355" y="787" type="curve" smooth="yes"/>
      <point x="453" y="787"/>
      <point x="497" y="722"/>
      <point x="497" y="647" type="curve" smooth="yes"/>
      <point x="497" y="483"/>
      <point x="258" y="264"/>
      <point x="84" y="140" type="curve"/>
    </contour>
  </outline>
</glyph>
<glyph name="four" format="2">
  <advance width="791"/>
  <unicode hex="0034"/>
  <anchor x="468" y="-75" name="L"/>
  <anchor x="468" y="1147" name="U"/>
  <outline>
    <contour>
      <point x="478" y="0" type="line"/>
      <point x="647" y="0" type="line"/>
      <point x="647" y="211" type="line"/>
      <point x="749" y="211" type="line"/>
      <point x="749" y="354" type="line"/>
      <point x="647" y="354" type="line"/>
      <point x="647" y="914" type="line"/>
      <point x="456" y="914" type="line"/>
      <point x="51" y="354" type="line"/>
      <point x="51" y="211" type="line"/>
      <point x="478" y="211" type="line"/>
    </contour>
    <contour>
      <point x="207" y="354" type="line"/>
      <point x="478" y="712" type="line"/>
      <point x="478" y="354" type="line"/>
    </contour>
  </outline>
</glyph>
<glyph name="six" format="2">
  <advance width="791"/>
  <unicode hex="0036"/>
  <anchor x="468" y="-75" name="L"/>
  <anchor x="468" y="1147" name="U"/>
  <outline>
    <contour>
      <point x="422" y="-15" type="curve" smooth="yes"/>
      <point x="615" y="-15"/>
      <point x="742" y="114"/>
      <point x="742" y="282" type="curve" smooth="yes"/>
      <point x="742" y="436"/>
      <point x="620" y="561"/>
      <point x="436" y="561" type="curve" smooth="yes"/>
      <point x="315" y="561"/>
      <point x="222" y="490"/>
      <point x="150" y="389" type="curve"/>
      <point x="191" y="316" type="line"/>
      <point x="243" y="384"/>
      <point x="325" y="424"/>
      <point x="423" y="424" type="curve" smooth="yes"/>
      <point x="525" y="424"/>
      <point x="580" y="354"/>
      <point x="580" y="273" type="curve" smooth="yes"/>
      <point x="580" y="209"/>
      <point x="518" y="133"/>
      <point x="424" y="133" type="curve" smooth="yes"/>
      <point x="309" y="133"/>
      <point x="232" y="246"/>
      <point x="232" y="394" type="curve" smooth="yes"/>
      <point x="232" y="694"/>
      <point x="343" y="768"/>
      <point x="468" y="768" type="curve" smooth="yes"/>
      <point x="530" y="768"/>
      <point x="594" y="753"/>
      <point x="649" y="699" type="curve"/>
      <point x="690" y="861" type="line"/>
      <point x="624" y="905"/>
      <point x="563" y="918"/>
      <point x="474" y="918" type="curve" smooth="yes"/>
      <point x="172" y="918"/>
      <point x="64" y="653"/>
      <point x="64" y="417" type="curve" smooth="yes"/>
      <point x="64" y="142"/>
      <point x="196" y="-15"/>
    </contour>
  </outline>
</glyph>
<glyph name="seven" format="2">
  <advance width="791"/>
  <unicode hex="0037"/>
  <anchor x="468" y="-75" name="L"/>
  <anchor x="468" y="1147" name="U"/>
  <outline>
    <contour>
      <point x="150" y="0" type="curve"/>
      <point x="332" y="0" type="line"/>
      <point x="406" y="268"/>
      <point x="531" y="519"/>
      <point x="720" y="778" type="curve"/>
      <point x="720" y="905" type="line"/>
      <point x="64" y="905" type="line"/>
      <point x="64" y="736" type="line"/>
      <point x="112" y="746"/>
      <point x="186" y="749"/>
      <point x="306" y="749" type="curve" smooth="yes"/>
      <point x="510" y="749" type="line"/>
      <point x="345" y="511"/>
      <point x="252" y="337"/>
    </contour>
  </outline>
</glyph>
<glyph name="less" format="2">
  <advance width="757"/>
  <unicode hex="003C"/>
  <outline>
    <contour>
      <point x="74" y="290" type="line"/>
      <point x="683" y="40" type="line"/>
      <point x="683" y="175" type="line"/>
      <point x="121" y="400" type="line"/>
      <point x="121" y="311" type="line"/>
      <point x="683" y="540" type="line"/>
      <point x="683" y="677" type="line"/>
      <point x="74" y="427" type="line"/>
    </contour>
  </outline>
</glyph>
<glyph name="greater" format="2">
  <advance width="757"/>
  <unicode hex="003E"/>
  <outline>
    <contour>
      <point x="683" y="290" type="line"/>
      <point x="683" y="427" type="line"/>
      <point x="74" y="677" type="line"/>
      <point x="74" y="540" type="line"/>
      <point x="635" y="311" type="line"/>
      <point x="635" y="400" type="line"/>
      <point x="74" y="175" type="line"/>
      <point x="74" y="40" type="line"/>
    </contour>
  </outline>
</glyph>
<glyph name="C" format="2">
  <advance width="877"/>
  <unicode hex="0043"/>
  <note>
C
</note>
  <anchor x="495" y="824" name="above"/>
  <anchor x="495" y="0" name="below"/>
  <outline>
    <contour>
      <point x="526" y="-12" type="curve" smooth="yes"/>
      <point x="637" y="-12"/>
      <point x="743" y="19"/>
      <point x="804" y="58" type="curve"/>
      <point x="844" y="246" type="line"/>
      <point x="748" y="257" type="line"/>
      <point x="697" y="127" type="line"/>
      <point x="662" y="99"/>
      <point x="612" y="85"/>
      <point x="560" y="85" type="curve" smooth="yes"/>
      <point x="414" y="85"/>
      <point x="297" y="216"/>
      <point x="297" y="432" type="curve" smooth="yes"/>
      <point x="297" y="624"/>
      <point x="386" y="742"/>
      <point x="545" y="742" type="curve" smooth="yes"/>
      <point x="587" y="742"/>
      <point x="631" y="732"/>
      <point x="667" y="714" type="curve"/>
      <point x="718" y="566" type="line"/>
      <point x="806" y="572" type="line"/>
      <point x="796" y="788" type="line"/>
      <point x="738" y="816"/>
      <point x="644" y="836"/>
      <point x="558" y="836" type="curve" smooth="yes"/>
      <point x="274" y="836"/>
      <point x="63" y="671"/>
      <point x="63" y="397" type="curve" smooth="yes"/>
      <point x="63" y="136"/>
      <point x="250" y="-12"/>
    </contour>
  </outline>
</glyph>
<glyph name="E" format="2">
  <advance width="821"/>
  <unicode hex="0045"/>
  <note>
E
</note>
  <anchor x="413" y="824" name="above"/>
  <anchor x="413" y="0" name="below"/>
  <anchor x="737" y="0" name="ogonek"/>
  <anchor x="40" y="824" name="topleft"/>
  <outline>
    <contour>
      <point x="735" y="-8" type="curve"/>
      <point x="798" y="220" type="line"/>
      <point x="717" y="236" type="line"/>
      <point x="640" y="94" type="line"/>
      <point x="617" y="91"/>
      <point x="613" y="89"/>
      <point x="541" y="89" type="curve" smooth="yes"/>
      <point x="470" y="89" type="line" smooth="yes"/>
      <point x="411" y="89"/>
      <point x="379" y="91"/>
      <point x="345" y="95" type="curve"/>
      <point x="342" y="120"/>
      <point x="341" y="179"/>
      <point x="341" y="274" type="curve" smooth="yes"/>
      <point x="341" y="562" type="line" smooth="yes"/>
      <point x="341" y="657"/>
      <point x="342" y="713"/>
      <point x="345" y="736" type="curve"/>
      <point x="364" y="739"/>
      <point x="400" y="740"/>
      <point x="437" y="740" type="curve" smooth="yes"/>
      <point x="539" y="740" type="line" smooth="yes"/>
      <point x="560" y="740"/>
      <point x="578" y="739"/>
      <point x="603" y="733" type="curve"/>
      <point x="656" y="609" type="line"/>
      <point x="739" y="621" type="line"/>
      <point x="701" y="831" type="line"/>
      <point x="645" y="826"/>
      <point x="540" y="824"/>
      <point x="482" y="824" type="curve" smooth="yes"/>
      <point x="52" y="824" type="line"/>
      <point x="47" y="752" type="line"/>
      <point x="137" y="729" type="line"/>
      <point x="142" y="719"/>
      <point x="147" y="627"/>
      <point x="147" y="511" type="curve" smooth="yes"/>
      <point x="147" y="311" type="line" smooth="yes"/>
      <point x="147" y="198"/>
      <point x="142" y="105"/>
      <point x="137" y="93" type="curve"/>
      <point x="47" y="71" type="line"/>
      <point x="52" y="0" type="line"/>
      <point x="535" y="0" type="line"/>
      <point x="595" y="0"/>
      <point x="680" y="-4"/>
    </contour>
    <contour>
      <point x="554" y="279" type="line"/>
      <point x="634" y="279" type="line"/>
      <point x="634" y="564" type="line"/>
      <point x="554" y="564" type="line"/>
      <point x="540" y="470" type="line"/>
      <point x="527" y="470"/>
      <point x="496" y="469"/>
      <point x="460" y="469" type="curve" smooth="yes"/>
      <point x="387" y="469" type="line" smooth="yes"/>
      <point x="354" y="469"/>
      <point x="323" y="472"/>
      <point x="310" y="473" type="curve"/>
      <point x="310" y="372" type="line"/>
      <point x="323" y="373"/>
      <point x="354" y="376"/>
      <point x="387" y="376" type="curve" smooth="yes"/>
      <point x="460" y="376" type="line" smooth="yes"/>
      <point x="496" y="376"/>
      <point x="527" y="374"/>
      <point x="540" y="373" type="curve"/>
    </contour>
  </outline>
</glyph>
<glyph name="G" format="2">
  <advance width="929"/>
  <unicode hex="0047"/>
  <note>
G
</note>
  <anchor x="493" y="824" name="above"/>
  <anchor x="493" y="0" name="below"/>
  <outline>
    <contour>
      <point x="521" y="-12" type="curve" smooth="yes"/>
      <point x="623" y="-12"/>
      <point x="732" y="11"/>
      <point x="814" y="61" type="curve"/>
      <point x="812" y="115"/>
      <point x="810" y="156"/>
      <point x="810" y="188" type="curve" smooth="yes"/>
      <point x="810" y="228"/>
      <point x="809" y="273"/>
      <point x="810" y="294" type="curve"/>
      <point x="881" y="317" type="line"/>
      <point x="877" y="389" type="line"/>
      <point x="517" y="389" type="line"/>
      <point x="512" y="315" type="line"/>
      <point x="613" y="293" type="line"/>
      <point x="616" y="267"/>
      <point x="619" y="217"/>
      <point x="619" y="179" type="curve" smooth="yes"/>
      <point x="619" y="29" type="line"/>
      <point x="650" y="106" type="line"/>
      <point x="622" y="91"/>
      <point x="583" y="85"/>
      <point x="558" y="85" type="curve" smooth="yes"/>
      <point x="409" y="85"/>
      <point x="291" y="216"/>
      <point x="291" y="432" type="curve" smooth="yes"/>
      <point x="291" y="624"/>
      <point x="384" y="742"/>
      <point x="544" y="742" type="curve" smooth="yes"/>
      <point x="581" y="742"/>
      <point x="627" y="735"/>
      <point x="664" y="714" type="curve"/>
      <point x="708" y="585" type="line"/>
      <point x="798" y="588" type="line"/>
      <point x="792" y="788" type="line"/>
      <point x="736" y="816"/>
      <point x="643" y="836"/>
      <point x="557" y="836" type="curve" smooth="yes"/>
      <point x="270" y="836"/>
      <point x="60" y="671"/>
      <point x="60" y="391" type="curve" smooth="yes"/>
      <point x="60" y="136"/>
      <point x="249" y="-12"/>
    </contour>
  </outline>
</glyph>
<glyph name="I" format="2">
  <advance width="491"/>
  <unicode hex="0049"/>
  <note>
I
</note>
  <anchor x="245" y="824" name="above"/>
  <anchor x="245" y="0" name="below"/>
  <anchor x="350" y="0" name="ogonek"/>
  <anchor x="40" y="824" name="topleft"/>
  <outline>
    <contour>
      <point x="52" y="0" type="line"/>
      <point x="437" y="0" type="line"/>
      <point x="441" y="71" type="line"/>
      <point x="352" y="93" type="line"/>
      <point x="346" y="108"/>
      <point x="342" y="203"/>
      <point x="342" y="311" type="curve" smooth="yes"/>
      <point x="342" y="511" type="line" smooth="yes"/>
      <point x="342" y="622"/>
      <point x="346" y="718"/>
      <point x="352" y="730" type="curve"/>
      <point x="441" y="752" type="line"/>
      <point x="437" y="824" type="line"/>
      <point x="52" y="824" type="line"/>
      <point x="48" y="752" type="line"/>
      <point x="137" y="730" type="line"/>
      <point x="142" y="721"/>
      <point x="147" y="626"/>
      <point x="147" y="511" type="curve" smooth="yes"/>
      <point x="147" y="311" type="line" smooth="yes"/>
      <point x="147" y="199"/>
      <point x="142" y="105"/>
      <point x="137" y="93" type="curve"/>
      <point x="48" y="71" type="line"/>
    </contour>
  </outline>
</glyph>
<glyph name="K" format="2">
  <advance width="929"/>
  <unicode hex="004B"/>
  <note>
K
</note>
  <anchor x="469" y="824" name="above"/>
  <anchor x="469" y="0" name="below"/>
  <outline>
    <contour>
      <point x="522" y="0" type="line"/>
      <point x="947" y="0" type="line"/>
      <point x="947" y="72" type="line"/>
      <point x="875" y="83" type="line"/>
      <point x="862" y="97"/>
      <point x="839" y="118"/>
      <point x="772" y="199" type="curve" smooth="yes"/>
      <point x="501" y="525" type="line"/>
      <point x="506" y="462" type="line"/>
      <point x="812" y="735" type="line"/>
      <point x="907" y="749" type="line"/>
      <point x="903" y="824" type="line"/>
      <point x="580" y="824" type="line"/>
      <point x="576" y="752" type="line"/>
      <point x="665" y="736" type="line"/>
      <point x="376" y="439" type="line"/>
      <point x="318" y="427" type="line"/>
      <point x="318" y="361" type="line"/>
      <point x="373" y="361" type="line"/>
      <point x="543" y="152" type="line" smooth="yes"/>
      <point x="569" y="118"/>
      <point x="578" y="105"/>
      <point x="589" y="85" type="curve"/>
      <point x="517" y="71" type="line"/>
    </contour>
    <contour>
      <point x="57" y="0" type="line"/>
      <point x="417" y="0" type="line"/>
      <point x="421" y="71" type="line"/>
      <point x="351" y="93" type="line"/>
      <point x="346" y="105"/>
      <point x="344" y="193"/>
      <point x="344" y="311" type="curve" smooth="yes"/>
      <point x="344" y="511" type="line" smooth="yes"/>
      <point x="344" y="621"/>
      <point x="348" y="716"/>
      <point x="353" y="729" type="curve"/>
      <point x="442" y="752" type="line"/>
      <point x="439" y="824" type="line"/>
      <point x="53" y="824" type="line"/>
      <point x="49" y="752" type="line"/>
      <point x="138" y="729" type="line"/>
      <point x="144" y="719"/>
      <point x="148" y="626"/>
      <point x="148" y="511" type="curve" smooth="yes"/>
      <point x="148" y="311" type="line" smooth="yes"/>
      <point x="148" y="193"/>
      <point x="146" y="105"/>
      <point x="142" y="93" type="curve"/>
      <point x="52" y="71" type="line"/>
    </contour>
  </outline>
</glyph>
<glyph name="M" format="2">
  <advance width="1258"/>
  <unicode hex="004D"/>
  <note>
M
</note>
  <anchor x="588" y="824" name="above"/>
  <anchor x="588" y="0" name="below"/>
  <outline>
    <contour>
      <point x="66" y="824" type="line"/>
      <point x="62" y="752" type="line"/>
      <point x="151" y="729" type="line"/>
      <point x="151" y="705"/>
      <point x="153" y="646"/>
      <point x="151" y="552" type="curve" smooth="yes"/>
      <point x="147" y="292" type="line" smooth="yes"/>
      <point x="146" y="203"/>
      <point x="144" y="110"/>
      <point x="141" y="93" type="curve"/>
      <point x="43" y="71" type="line"/>
      <point x="47" y="0" type="line"/>
      <point x="357" y="0" type="line"/>
      <point x="361" y="71" type="line"/>
      <point x="264" y="93" type="line"/>
      <point x="261" y="104"/>
      <point x="260" y="156"/>
      <point x="260" y="299" type="curve" smooth="yes"/>
      <point x="258" y="783" type="line"/>
      <point x="166" y="783" type="line"/>
      <point x="543" y="-3" type="line"/>
      <point x="635" y="-3" type="line"/>
      <point x="969" y="783" type="line"/>
      <point x="903" y="783" type="line"/>
      <point x="907" y="310" type="line" smooth="yes"/>
      <point x="909" y="188"/>
      <point x="907" y="108"/>
      <point x="905" y="93" type="curve"/>
      <point x="814" y="71" type="line"/>
      <point x="819" y="0" type="line"/>
      <point x="1208" y="0" type="line"/>
      <point x="1212" y="71" type="line"/>
      <point x="1121" y="93" type="line"/>
      <point x="1118" y="107"/>
      <point x="1112" y="193"/>
      <point x="1107" y="310" type="curve"/>
      <point x="1099" y="555" type="line" smooth="yes"/>
      <point x="1097" y="641"/>
      <point x="1095" y="700"/>
      <point x="1097" y="730" type="curve"/>
      <point x="1186" y="752" type="line"/>
      <point x="1182" y="824" type="line"/>
      <point x="880" y="824" type="line"/>
      <point x="617" y="206" type="line"/>
      <point x="660" y="206" type="line"/>
      <point x="366" y="824" type="line"/>
    </contour>
  </outline>
</glyph>
<glyph name="P" format="2">
  <advance width="807"/>
  <unicode hex="0050"/>
  <note>
P
</note>
  <anchor x="409" y="824" name="above"/>
  <anchor x="246" y="0" name="below"/>
  <outline>
    <contour>
      <point x="57" y="0" type="line"/>
      <point x="464" y="0" type="line"/>
      <point x="468" y="73" type="line"/>
      <point x="354" y="94" type="line"/>
      <point x="352" y="105"/>
      <point x="345" y="194"/>
      <point x="345" y="304" type="curve"/>
      <point x="344" y="525" type="line"/>
      <point x="344" y="656"/>
      <point x="344" y="722"/>
      <point x="346" y="743" type="curve"/>
      <point x="381" y="743" type="line" smooth="yes"/>
      <point x="491" y="743"/>
      <point x="553" y="688"/>
      <point x="553" y="563" type="curve" smooth="yes"/>
      <point x="553" y="457"/>
      <point x="504" y="400"/>
      <point x="416" y="400" type="curve" smooth="yes"/>
      <point x="375" y="400"/>
      <point x="344" y="408"/>
      <point x="325" y="415" type="curve"/>
      <point x="325" y="317" type="line"/>
      <point x="353" y="312"/>
      <point x="386" y="308"/>
      <point x="416" y="308" type="curve" smooth="yes"/>
      <point x="636" y="308"/>
      <point x="761" y="426"/>
      <point x="761" y="582" type="curve" smooth="yes"/>
      <point x="761" y="737"/>
      <point x="648" y="824"/>
      <point x="414" y="824" type="curve" smooth="yes"/>
      <point x="53" y="824" type="line"/>
      <point x="49" y="752" type="line"/>
      <point x="138" y="733" type="line"/>
      <point x="144" y="722"/>
      <point x="148" y="629"/>
      <point x="148" y="525" type="curve"/>
      <point x="147" y="304" type="line"/>
      <point x="147" y="194"/>
      <point x="143" y="105"/>
      <point x="137" y="93" type="curve"/>
      <point x="53" y="71" type="line"/>
    </contour>
  </outline>
</glyph>
<glyph name="Q" format="2">
  <advance width="998"/>
  <unicode hex="0051"/>
  <note>
Q
</note>
  <anchor x="499" y="824" name="above"/>
  <outline>
    <contour>
      <point x="507" y="-8" type="curve"/>
      <point x="526" y="-4" type="line"/>
      <point x="701" y="-4"/>
      <point x="936" y="133"/>
      <point x="936" y="423" type="curve" smooth="yes"/>
      <point x="936" y="666"/>
      <point x="759" y="836"/>
      <point x="507" y="836" type="curve" smooth="yes"/>
      <point x="249" y="836"/>
      <point x="60" y="651"/>
      <point x="60" y="400" type="curve" smooth="yes"/>
      <point x="60" y="159"/>
      <point x="248" y="-8"/>
    </contour>
    <contour>
      <point x="857" y="-207" type="curve" smooth="yes"/>
      <point x="940" y="-207"/>
      <point x="1012" y="-184"/>
      <point x="1061" y="-151" type="curve"/>
      <point x="1040" y="-74" type="line"/>
      <point x="1006" y="-84"/>
      <point x="974" y="-87"/>
      <point x="952" y="-87" type="curve" smooth="yes"/>
      <point x="902" y="-87"/>
      <point x="864" y="-75"/>
      <point x="794" y="-35" type="curve" smooth="yes"/>
      <point x="736" y="-2"/>
      <point x="658" y="14"/>
      <point x="586" y="15" type="curve"/>
      <point x="369" y="15" type="line"/>
      <point x="419" y="-4"/>
      <point x="462" y="-36"/>
      <point x="526" y="-91" type="curve" smooth="yes"/>
      <point x="600" y="-155"/>
      <point x="696" y="-207"/>
    </contour>
    <contour>
      <point x="518" y="93" type="curve" smooth="yes"/>
      <point x="383" y="93"/>
      <point x="289" y="237"/>
      <point x="289" y="442" type="curve" smooth="yes"/>
      <point x="289" y="629"/>
      <point x="366" y="741"/>
      <point x="491" y="741" type="curve" smooth="yes"/>
      <point x="623" y="741"/>
      <point x="709" y="602"/>
      <point x="709" y="387" type="curve" smooth="yes"/>
      <point x="709" y="195"/>
      <point x="643" y="93"/>
    </contour>
  </outline>
</glyph>
<glyph name="U" format="2">
  <advance width="993"/>
  <unicode hex="0055"/>
  <note>
U
</note>
  <anchor x="536" y="824" name="above"/>
  <anchor x="535" y="0" name="below"/>
  <anchor x="614" y="0" name="ogonek"/>
  <anchor x="943" y="824" name="topright"/>
  <outline>
    <contour>
      <point x="50" y="824" type="line"/>
      <point x="46" y="752" type="line"/>
      <point x="135" y="729" type="line"/>
      <point x="139" y="719"/>
      <point x="143" y="626"/>
      <point x="143" y="511" type="curve" smooth="yes"/>
      <point x="143" y="348" type="line" smooth="yes"/>
      <point x="143" y="117"/>
      <point x="275" y="-12"/>
      <point x="512" y="-12" type="curve" smooth="yes"/>
      <point x="721" y="-12"/>
      <point x="849" y="125"/>
      <point x="849" y="347" type="curve" smooth="yes"/>
      <point x="849" y="486" type="line" smooth="yes"/>
      <point x="849" y="608"/>
      <point x="853" y="720"/>
      <point x="857" y="729" type="curve"/>
      <point x="948" y="752" type="line"/>
      <point x="944" y="824" type="line"/>
      <point x="628" y="824" type="line"/>
      <point x="623" y="752" type="line"/>
      <point x="722" y="729" type="line"/>
      <point x="727" y="719"/>
      <point x="731" y="602"/>
      <point x="731" y="486" type="curve" smooth="yes"/>
      <point x="731" y="373" type="line" smooth="yes"/>
      <point x="731" y="204"/>
      <point x="669" y="122"/>
      <point x="539" y="122" type="curve" smooth="yes"/>
      <point x="407" y="122"/>
      <point x="340" y="207"/>
      <point x="341" y="372" type="curve"/>
      <point x="341" y="511" type="line"/>
      <point x="341" y="619"/>
      <point x="345" y="697"/>
      <point x="348" y="729" type="curve"/>
      <point x="438" y="752" type="line"/>
      <point x="434" y="824" type="line"/>
    </contour>
  </outline>
</glyph>
<glyph name="V" format="2">
  <advance width="866"/>
  <unicode hex="0056"/>
  <note>
V
</note>
  <anchor x="425" y="824" name="above"/>
  <anchor x="425" y="0" name="below"/>
  <outline>
    <contour>
      <point x="391" y="-3" type="line"/>
      <point x="468" y="-3" type="line"/>
      <point x="801" y="729" type="line"/>
      <point x="874" y="754" type="line"/>
      <point x="868" y="824" type="line"/>
      <point x="578" y="824" type="line"/>
      <point x="574" y="752" type="line"/>
      <point x="672" y="729" type="line"/>
      <point x="462" y="190" type="line"/>
      <point x="519" y="190" type="line"/>
      <point x="288" y="729" type="line"/>
      <point x="376" y="752" type="line"/>
      <point x="371" y="824" type="line"/>
      <point x="-3" y="824" type="line"/>
      <point x="-7" y="754" type="line"/>
      <point x="64" y="729" type="line"/>
    </contour>
  </outline>
</glyph>
<glyph name="X" format="2">
  <advance width="857"/>
  <unicode hex="0058"/>
  <note>
X
</note>
  <anchor x="422" y="824" name="above"/>
  <anchor x="422" y="0" name="below"/>
  <outline>
    <contour>
      <point x="852" y="0" type="line"/>
      <point x="856" y="71" type="line"/>
      <point x="785" y="94" type="line"/>
      <point x="519" y="472" type="line"/>
      <point x="465" y="550" type="line"/>
      <point x="341" y="729" type="line"/>
      <point x="407" y="752" type="line"/>
      <point x="403" y="824" type="line"/>
      <point x="41" y="824" type="line"/>
      <point x="37" y="752" type="line"/>
      <point x="109" y="729" type="line"/>
      <point x="336" y="400" type="line"/>
      <point x="395" y="321" type="line"/>
      <point x="551" y="94" type="line"/>
      <point x="463" y="71" type="line"/>
      <point x="467" y="0" type="line"/>
    </contour>
    <contour>
      <point x="589" y="729" type="line"/>
      <point x="465" y="550" type="line"/>
      <point x="336" y="400" type="line"/>
      <point x="102" y="94" type="line"/>
      <point x="31" y="71" type="line"/>
      <point x="35" y="0" type="line"/>
      <point x="327" y="0" type="line"/>
      <point x="330" y="71" type="line"/>
      <point x="238" y="94" type="line"/>
      <point x="395" y="321" type="line"/>
      <point x="519" y="472" type="line"/>
      <point x="726" y="729" type="line"/>
      <point x="797" y="752" type="line"/>
      <point x="794" y="824" type="line"/>
      <point x="521" y="824" type="line"/>
      <point x="517" y="752" type="line"/>
    </contour>
  </outline>
</glyph>
<glyph name="Y" format="2">
  <advance width="830"/>
  <unicode hex="0059"/>
  <note>
Y
</note>
  <anchor x="414" y="824" name="above"/>
  <anchor x="414" y="0" name="below"/>
  <anchor x="34" y="824" name="topleft"/>
  <outline>
    <contour>
      <point x="746" y="729" type="line"/>
      <point x="818" y="752" type="line"/>
      <point x="813" y="824" type="line"/>
      <point x="533" y="824" type="line"/>
      <point x="529" y="752" type="line"/>
      <point x="628" y="729" type="line"/>
      <point x="451" y="424" type="line"/>
      <point x="485" y="424" type="line"/>
      <point x="308" y="729" type="line"/>
      <point x="397" y="752" type="line"/>
      <point x="393" y="824" type="line"/>
      <point x="16" y="824" type="line"/>
      <point x="12" y="752" type="line"/>
      <point x="84" y="729" type="line"/>
      <point x="364" y="252" type="line"/>
      <point x="318" y="396" type="line"/>
      <point x="318" y="255" type="line" smooth="yes"/>
      <point x="318" y="194"/>
      <point x="315" y="105"/>
      <point x="311" y="93" type="curve"/>
      <point x="212" y="72" type="line"/>
      <point x="216" y="0" type="line"/>
      <point x="613" y="0" type="line"/>
      <point x="617" y="72" type="line"/>
      <point x="519" y="93" type="line"/>
      <point x="514" y="105"/>
      <point x="511" y="194"/>
      <point x="511" y="255" type="curve" smooth="yes"/>
      <point x="511" y="396" type="line"/>
      <point x="447" y="252" type="line"/>
    </contour>
  </outline>
</glyph>
<glyph name="bracketleft" format="2">
  <advance width="489"/>
  <unicode hex="005B"/>
  <note>
bracketleft
</note>
  <outline>
    <contour>
      <point x="448" y="-308" type="line"/>
      <point x="448" y="-224" type="line"/>
      <point x="307" y="-224" type="line"/>
      <point x="307" y="929" type="line"/>
      <point x="448" y="929" type="line"/>
      <point x="448" y="1013" type="line"/>
      <point x="126" y="1013" type="line"/>
      <point x="126" y="-308" type="line"/>
    </contour>
  </outline>
</glyph>
<glyph name="backslash" format="2">
  <advance width="590"/>
  <unicode hex="005C"/>
  <note>
backslash
</note>
  <outline>
    <contour>
      <point x="547" y="-252" type="line"/>
      <point x="124" y="1022" type="line"/>
      <point x="-13" y="1022" type="line"/>
      <point x="408" y="-252" type="line"/>
    </contour>
  </outline>
</glyph>
<glyph name="bracketright" format="2">
  <advance width="489"/>
  <unicode hex="005D"/>
  <note>
bracketright
</note>
  <outline>
    <contour>
      <point x="40" y="-308" type="line"/>
      <point x="363" y="-308" type="line"/>
      <point x="363" y="1013" type="line"/>
      <point x="40" y="1013" type="line"/>
      <point x="40" y="929" type="line"/>
      <point x="180" y="929" type="line"/>
      <point x="180" y="-224" type="line"/>
      <point x="40" y="-224" type="line"/>
    </contour>
  </outline>
</glyph>
<glyph name="asciicircum" format="2">
  <advance width="757"/>
  <unicode hex="005E"/>
  <outline>
    <contour>
      <point x="442" y="788" type="line"/>
      <point x="314" y="788" type="line"/>
      <point x="61" y="178" type="line"/>
      <point x="190" y="178" type="line"/>
      <point x="421" y="737" type="line"/>
      <point x="336" y="737" type="line"/>
      <point x="565" y="178" type="line"/>
      <point x="698" y="178" type="line"/>
    </contour>
  </outline>
</glyph>
<glyph name="a" format="2">
  <advance width="707"/>
  <unicode hex="0061"/>
  <note>
a
</note>
  <anchor x="348" y="618" name="above"/>
  <anchor x="355" y="0" name="below"/>
  <anchor x="639" y="0" name="ogonek"/>
  <outline>
    <contour>
      <point x="264" y="-10" type="curve" smooth="yes"/>
      <point x="320" y="-10"/>
      <point x="384" y="31"/>
      <point x="441" y="104" type="curve"/>
      <point x="412" y="110" type="line"/>
      <point x="437" y="45" type="line" smooth="yes"/>
      <point x="452" y="7"/>
      <point x="477" y="-10"/>
      <point x="515" y="-10" type="curve" smooth="yes"/>
      <point x="542" y="-10"/>
      <point x="570" y="-2"/>
      <point x="604" y="10" type="curve" smooth="yes"/>
      <point x="698" y="50" type="line"/>
      <point x="698" y="112" type="line"/>
      <point x="605" y="129" type="line"/>
      <point x="597" y="147"/>
      <point x="594" y="173"/>
      <point x="594" y="226" type="curve"/>
      <point x="598" y="418" type="line"/>
      <point x="598" y="547"/>
      <point x="492" y="629"/>
      <point x="323" y="629" type="curve"/>
      <point x="239" y="618"/>
      <point x="61" y="530"/>
      <point x="61" y="456" type="curve" smooth="yes"/>
      <point x="61" y="397"/>
      <point x="129" y="369"/>
      <point x="223" y="388" type="curve"/>
      <point x="231" y="476" type="line" smooth="yes"/>
      <point x="233" y="514"/>
      <point x="243" y="526"/>
      <point x="273" y="526" type="curve" smooth="yes"/>
      <point x="341" y="526"/>
      <point x="406" y="470"/>
      <point x="406" y="411" type="curve" smooth="yes"/>
      <point x="406" y="363" type="line"/>
      <point x="185" y="299" type="line" smooth="yes"/>
      <point x="96" y="273"/>
      <point x="55" y="229"/>
      <point x="55" y="159" type="curve" smooth="yes"/>
      <point x="55" y="88"/>
      <point x="133" y="-10"/>
    </contour>
    <contour>
      <point x="339" y="117" type="curve" smooth="yes"/>
      <point x="292" y="117"/>
      <point x="252" y="160"/>
      <point x="252" y="203" type="curve" smooth="yes"/>
      <point x="252" y="238"/>
      <point x="270" y="261"/>
      <point x="317" y="267" type="curve" smooth="yes"/>
      <point x="407" y="283" type="line"/>
      <point x="407" y="147" type="line"/>
      <point x="387" y="127"/>
      <point x="363" y="117"/>
    </contour>
  </outline>
</glyph>
<glyph name="b" format="2">
  <advance width="787"/>
  <unicode hex="0062"/>
  <note>
b
</note>
  <anchor x="392" y="926" name="above"/>
  <anchor x="392" y="0" name="below"/>
  <outline>
    <contour>
      <point x="94" y="40" type="curve"/>
      <point x="182" y="4"/>
      <point x="264" y="-11"/>
      <point x="355" y="-11" type="curve" smooth="yes"/>
      <point x="592" y="-11"/>
      <point x="739" y="148"/>
      <point x="739" y="341" type="curve" smooth="yes"/>
      <point x="739" y="521"/>
      <point x="614" y="629"/>
      <point x="475" y="629" type="curve" smooth="yes"/>
      <point x="401" y="629"/>
      <point x="324" y="578"/>
      <point x="286" y="522" type="curve"/>
      <point x="282" y="524" type="line"/>
      <point x="287" y="745"/>
      <point x="289" y="837"/>
      <point x="297" y="954" type="curve"/>
      <point x="257" y="979" type="line"/>
      <point x="-13" y="908" type="line"/>
      <point x="-10" y="846" type="line"/>
      <point x="92" y="833" type="line"/>
      <point x="95" y="791"/>
      <point x="99" y="682"/>
      <point x="99" y="505" type="curve"/>
      <point x="99" y="343" type="line"/>
      <point x="99" y="239"/>
      <point x="98" y="132"/>
    </contour>
    <contour>
      <point x="391" y="96" type="curve" smooth="yes"/>
      <point x="353" y="96"/>
      <point x="313" y="110"/>
      <point x="286" y="131" type="curve"/>
      <point x="286" y="446" type="line"/>
      <point x="311" y="474"/>
      <point x="350" y="492"/>
      <point x="392" y="492" type="curve" smooth="yes"/>
      <point x="467" y="492"/>
      <point x="538" y="435"/>
      <point x="537" y="299" type="curve" smooth="yes"/>
      <point x="537" y="154"/>
      <point x="474" y="96"/>
    </contour>
  </outline>
</glyph>
<glyph name="d" format="2">
  <advance width="790"/>
  <unicode hex="0064"/>
  <note>
d
</note>
  <anchor x="395" y="926" name="above"/>
  <anchor x="420" y="0" name="below"/>
  <anchor x="395" y="309" name="center"/>
  <anchor x="505" y="726" name="stroke"/>
  <anchor x="731" y="966" name="topright"/>
  <outline>
    <contour>
      <point x="533" y="-18" type="line"/>
      <point x="776" y="47" type="line"/>
      <point x="776" y="108" type="line"/>
      <point x="682" y="128" type="line"/>
      <point x="678" y="175"/>
      <point x="673" y="223"/>
      <point x="673" y="314" type="curve"/>
      <point x="675" y="640" type="line" smooth="yes"/>
      <point x="675" y="747"/>
      <point x="681" y="838"/>
      <point x="686" y="954" type="curve"/>
      <point x="647" y="979" type="line"/>
      <point x="375" y="908" type="line"/>
      <point x="378" y="847" type="line"/>
      <point x="482" y="832" type="line"/>
      <point x="485" y="791"/>
      <point x="488" y="682"/>
      <point x="488" y="608" type="curve"/>
      <point x="465" y="620"/>
      <point x="424" y="626"/>
      <point x="390" y="626" type="curve" smooth="yes"/>
      <point x="220" y="626"/>
      <point x="46" y="497"/>
      <point x="46" y="288" type="curve" smooth="yes"/>
      <point x="46" y="106"/>
      <point x="176" y="-13"/>
      <point x="323" y="-13" type="curve" smooth="yes"/>
      <point x="383" y="-13"/>
      <point x="443" y="14"/>
      <point x="490" y="97" type="curve"/>
      <point x="495" y="94" type="line"/>
      <point x="493" y="2" type="line"/>
    </contour>
    <contour>
      <point x="393" y="125" type="curve" smooth="yes"/>
      <point x="314" y="125"/>
      <point x="247" y="199"/>
      <point x="247" y="338" type="curve" smooth="yes"/>
      <point x="247" y="463"/>
      <point x="309" y="541"/>
      <point x="395" y="541" type="curve" smooth="yes"/>
      <point x="430" y="541"/>
      <point x="465" y="529"/>
      <point x="490" y="498" type="curve"/>
      <point x="490" y="183" type="line"/>
      <point x="463" y="141"/>
      <point x="421" y="125"/>
    </contour>
  </outline>
</glyph>
<glyph name="e" format="2">
  <advance width="673"/>
  <unicode hex="0065"/>
  <note>
e
</note>
  <anchor x="357" y="618" name="above"/>
  <anchor x="357" y="0" name="below"/>
  <anchor x="552" y="0" name="ogonek"/>
  <outline>
    <contour>
      <point x="363" y="-10" type="curve" smooth="yes"/>
      <point x="483" y="-10"/>
      <point x="584" y="48"/>
      <point x="637" y="161" type="curve"/>
      <point x="593" y="203" type="line"/>
      <point x="544" y="148"/>
      <point x="494" y="126"/>
      <point x="430" y="126" type="curve" smooth="yes"/>
      <point x="312" y="126"/>
      <point x="236" y="213"/>
      <point x="236" y="342" type="curve" smooth="yes"/>
      <point x="236" y="372" type="line" smooth="yes"/>
      <point x="236" y="491"/>
      <point x="289" y="548"/>
      <point x="357" y="548" type="curve" smooth="yes"/>
      <point x="424" y="548"/>
      <point x="464" y="495"/>
      <point x="464" y="407" type="curve" smooth="yes"/>
      <point x="464" y="357" type="line"/>
      <point x="488" y="393" type="line"/>
      <point x="215" y="393" type="line"/>
      <point x="215" y="318" type="line"/>
      <point x="629" y="318" type="line"/>
      <point x="629" y="353" type="line" smooth="yes"/>
      <point x="629" y="518"/>
      <point x="533" y="628"/>
      <point x="367" y="629" type="curve" smooth="yes"/>
      <point x="203" y="629"/>
      <point x="48" y="493"/>
      <point x="48" y="299" type="curve" smooth="yes"/>
      <point x="48" y="123"/>
      <point x="179" y="-10"/>
    </contour>
  </outline>
</glyph>
<glyph name="h" format="2">
  <advance width="830"/>
  <unicode hex="0068"/>
  <note>
h
</note>
  <anchor x="210" y="926" name="above"/>
  <anchor x="419" y="0" name="below"/>
  <anchor x="285" y="726" name="stroke"/>
  <outline>
    <contour>
      <point x="25" y="0" type="line"/>
      <point x="389" y="0" type="line"/>
      <point x="393" y="64" type="line"/>
      <point x="309" y="89" type="line"/>
      <point x="305" y="103"/>
      <point x="302" y="161"/>
      <point x="302" y="229" type="curve" smooth="yes"/>
      <point x="302" y="434" type="line"/>
      <point x="333" y="474"/>
      <point x="374" y="494"/>
      <point x="419" y="494" type="curve" smooth="yes"/>
      <point x="482" y="494"/>
      <point x="535" y="450"/>
      <point x="535" y="345" type="curve" smooth="yes"/>
      <point x="535" y="230" type="line" smooth="yes"/>
      <point x="535" y="181"/>
      <point x="532" y="117"/>
      <point x="528" y="89" type="curve"/>
      <point x="450" y="64" type="line"/>
      <point x="454" y="0" type="line"/>
      <point x="810" y="0" type="line"/>
      <point x="814" y="64" type="line"/>
      <point x="728" y="89" type="line"/>
      <point x="723" y="104"/>
      <point x="721" y="168"/>
      <point x="721" y="231" type="curve" smooth="yes"/>
      <point x="721" y="375" type="line" smooth="yes"/>
      <point x="721" y="536"/>
      <point x="630" y="629"/>
      <point x="509" y="629" type="curve" smooth="yes"/>
      <point x="430" y="629"/>
      <point x="359" y="591"/>
      <point x="302" y="517" type="curve"/>
      <point x="298" y="518" type="line"/>
      <point x="302" y="754"/>
      <point x="304" y="841"/>
      <point x="312" y="954" type="curve"/>
      <point x="272" y="979" type="line"/>
      <point x="1" y="908" type="line"/>
      <point x="4" y="846" type="line"/>
      <point x="107" y="832" type="line"/>
      <point x="113" y="768"/>
      <point x="116" y="634"/>
      <point x="116" y="505" type="curve" smooth="yes"/>
      <point x="116" y="327" type="line" smooth="yes"/>
      <point x="116" y="239"/>
      <point x="110" y="122"/>
      <point x="107" y="89" type="curve"/>
      <point x="20" y="64" type="line"/>
    </contour>
  </outline>
</glyph>
<glyph name="l" format="2">
  <advance width="422"/>
  <unicode hex="006C"/>
  <note>
l
</note>
  <anchor x="211" y="926" name="above"/>
  <anchor x="211" y="0" name="below"/>
  <anchor x="211" y="476" name="center"/>
  <anchor x="468" y="476" name="dotacc"/>
  <anchor x="363" y="966" name="topright"/>
  <outline>
    <contour>
      <point x="20" y="0" type="line"/>
      <point x="400" y="0" type="line"/>
      <point x="403" y="67" type="line"/>
      <point x="311" y="89" type="line"/>
      <point x="308" y="109"/>
      <point x="306" y="206"/>
      <point x="306" y="339" type="curve"/>
      <point x="307" y="543" type="line" smooth="yes"/>
      <point x="308" y="747"/>
      <point x="308" y="838"/>
      <point x="315" y="954" type="curve"/>
      <point x="275" y="979" type="line"/>
      <point x="1" y="908" type="line"/>
      <point x="4" y="846" type="line"/>
      <point x="107" y="832" type="line"/>
      <point x="113" y="768"/>
      <point x="116" y="635"/>
      <point x="116" y="505" type="curve" smooth="yes"/>
      <point x="116" y="327" type="line" smooth="yes"/>
      <point x="116" y="239"/>
      <point x="110" y="122"/>
      <point x="107" y="89" type="curve"/>
      <point x="16" y="67" type="line"/>
    </contour>
  </outline>
</glyph>
<glyph name="m" format="2">
  <advance width="1224"/>
  <unicode hex="006D"/>
  <note>
m
</note>
  <anchor x="616" y="618" name="above"/>
  <anchor x="616" y="0" name="below"/>
  <outline>
    <contour>
      <point x="26" y="0" type="line"/>
      <point x="384" y="0" type="line"/>
      <point x="388" y="64" type="line"/>
      <point x="311" y="89" type="line"/>
      <point x="306" y="104"/>
      <point x="304" y="168"/>
      <point x="304" y="229" type="curve" smooth="yes"/>
      <point x="304" y="434" type="line"/>
      <point x="330" y="472"/>
      <point x="374" y="494"/>
      <point x="415" y="494" type="curve" smooth="yes"/>
      <point x="477" y="494"/>
      <point x="523" y="458"/>
      <point x="523" y="360" type="curve"/>
      <point x="525" y="230" type="line"/>
      <point x="525" y="181"/>
      <point x="522" y="117"/>
      <point x="518" y="89" type="curve"/>
      <point x="447" y="64" type="line"/>
      <point x="452" y="0" type="line"/>
      <point x="788" y="0" type="line"/>
      <point x="792" y="64" type="line"/>
      <point x="718" y="89" type="line"/>
      <point x="713" y="104"/>
      <point x="711" y="168"/>
      <point x="711" y="231" type="curve"/>
      <point x="709" y="376" type="line"/>
      <point x="709" y="548"/>
      <point x="610" y="629"/>
      <point x="499" y="629" type="curve" smooth="yes"/>
      <point x="428" y="629"/>
      <point x="362" y="595"/>
      <point x="302" y="517" type="curve"/>
      <point x="298" y="519" type="line"/>
      <point x="307" y="601" type="line"/>
      <point x="266" y="626" type="line"/>
      <point x="16" y="561" type="line"/>
      <point x="16" y="497" type="line"/>
      <point x="106" y="477" type="line"/>
      <point x="113" y="426"/>
      <point x="116" y="388"/>
      <point x="117" y="335" type="curve"/>
      <point x="116" y="229" type="line" smooth="yes"/>
      <point x="114" y="164"/>
      <point x="110" y="102"/>
      <point x="109" y="89" type="curve"/>
      <point x="21" y="64" type="line"/>
    </contour>
    <contour>
      <point x="854" y="0" type="line"/>
      <point x="1204" y="0" type="line"/>
      <point x="1208" y="64" type="line"/>
      <point x="1121" y="89" type="line"/>
      <point x="1116" y="104"/>
      <point x="1114" y="168"/>
      <point x="1114" y="231" type="curve"/>
      <point x="1112" y="376" type="line"/>
      <point x="1112" y="537"/>
      <point x="1018" y="629"/>
      <point x="884" y="629" type="curve" smooth="yes"/>
      <point x="795" y="629"/>
      <point x="719" y="581"/>
      <point x="652" y="489" type="curve"/>
      <point x="695" y="438" type="line"/>
      <point x="722" y="474"/>
      <point x="766" y="494"/>
      <point x="810" y="494" type="curve" smooth="yes"/>
      <point x="875" y="494"/>
      <point x="925" y="455"/>
      <point x="925" y="345" type="curve"/>
      <point x="929" y="230" type="line"/>
      <point x="929" y="183"/>
      <point x="926" y="117"/>
      <point x="922" y="89" type="curve"/>
      <point x="850" y="64" type="line"/>
    </contour>
  </outline>
</glyph>
<glyph name="o" format="2">
  <advance width="752"/>
  <unicode hex="006F"/>
  <note>
o
</note>
  <anchor x="376" y="618" name="above"/>
  <anchor x="376" y="0" name="below"/>
  <anchor x="376" y="309" name="center"/>
  <anchor x="476" y="0" name="ogonek"/>
  <anchor x="729" y="618" name="topright"/>
  <outline>
    <contour>
      <point x="380" y="-10" type="curve" smooth="yes"/>
      <point x="560" y="-10"/>
      <point x="704" y="131"/>
      <point x="704" y="316" type="curve" smooth="yes"/>
      <point x="704" y="499"/>
      <point x="574" y="629"/>
      <point x="386" y="629" type="curve" smooth="yes"/>
      <point x="210" y="629"/>
      <point x="47" y="510"/>
      <point x="47" y="302" type="curve" smooth="yes"/>
      <point x="47" y="118"/>
      <point x="184" y="-10"/>
    </contour>
    <contour>
      <point x="394" y="80" type="curve" smooth="yes"/>
      <point x="313" y="80"/>
      <point x="252" y="193"/>
      <point x="252" y="343" type="curve" smooth="yes"/>
      <point x="252" y="467"/>
      <point x="295" y="542"/>
      <point x="364" y="542" type="curve" smooth="yes"/>
      <point x="446" y="542"/>
      <point x="502" y="432"/>
      <point x="502" y="270" type="curve" smooth="yes"/>
      <point x="502" y="150"/>
      <point x="463" y="80"/>
    </contour>
  </outline>
</glyph>
<glyph name="q" format="2">
  <advance width="775"/>
  <unicode hex="0071"/>
  <note>
q
</note>
  <anchor x="397" y="618" name="above"/>
  <outline>
    <contour>
      <point x="391" y="-308" type="line"/>
      <point x="764" y="-308" type="line"/>
      <point x="768" y="-243" type="line"/>
      <point x="681" y="-218" type="line"/>
      <point x="678" y="-201"/>
      <point x="676" y="-135"/>
      <point x="674" y="-24" type="curve" smooth="yes"/>
      <point x="672" y="349" type="line" smooth="yes"/>
      <point x="671" y="450"/>
      <point x="673" y="575"/>
      <point x="677" y="649" type="curve"/>
      <point x="620" y="649" type="line"/>
      <point x="557" y="594" type="line"/>
      <point x="512" y="615"/>
      <point x="459" y="626"/>
      <point x="399" y="626" type="curve" smooth="yes"/>
      <point x="217" y="626"/>
      <point x="48" y="500"/>
      <point x="48" y="288" type="curve" smooth="yes"/>
      <point x="48" y="106"/>
      <point x="175" y="-13"/>
      <point x="323" y="-13" type="curve" smooth="yes"/>
      <point x="382" y="-13"/>
      <point x="441" y="12"/>
      <point x="488" y="97" type="curve"/>
      <point x="492" y="94" type="line"/>
      <point x="491" y="-80" type="line" smooth="yes"/>
      <point x="491" y="-152"/>
      <point x="489" y="-196"/>
      <point x="488" y="-218" type="curve"/>
      <point x="387" y="-243" type="line"/>
    </contour>
    <contour>
      <point x="392" y="125" type="curve" smooth="yes"/>
      <point x="316" y="125"/>
      <point x="248" y="199"/>
      <point x="248" y="338" type="curve" smooth="yes"/>
      <point x="248" y="468"/>
      <point x="311" y="541"/>
      <point x="395" y="541" type="curve" smooth="yes"/>
      <point x="427" y="541"/>
      <point x="463" y="529"/>
      <point x="488" y="501" type="curve"/>
      <point x="487" y="183" type="line"/>
      <point x="462" y="141"/>
      <point x="418" y="125"/>
    </contour>
  </outline>
</glyph>
<glyph name="r" format="2">
  <advance width="583"/>
  <unicode hex="0072"/>
  <note>
r
</note>
  <anchor x="276" y="618" name="above"/>
  <anchor x="213" y="0" name="below"/>
  <outline>
    <contour>
      <point x="26" y="0" type="line"/>
      <point x="431" y="0" type="line"/>
      <point x="435" y="67" type="line"/>
      <point x="313" y="89" type="line"/>
      <point x="311" y="106"/>
      <point x="308" y="182"/>
      <point x="307" y="288" type="curve" smooth="yes"/>
      <point x="305" y="397" type="line"/>
      <point x="324" y="435"/>
      <point x="350" y="469"/>
      <point x="380" y="489" type="curve"/>
      <point x="338" y="492" type="line"/>
      <point x="381" y="449"/>
      <point x="414" y="435"/>
      <point x="459" y="435" type="curve" smooth="yes"/>
      <point x="514" y="435"/>
      <point x="563" y="473"/>
      <point x="563" y="534" type="curve" smooth="yes"/>
      <point x="563" y="595"/>
      <point x="517" y="624"/>
      <point x="467" y="624" type="curve" smooth="yes"/>
      <point x="407" y="624"/>
      <point x="352" y="593"/>
      <point x="300" y="489" type="curve"/>
      <point x="295" y="490" type="line"/>
      <point x="301" y="602" type="line"/>
      <point x="263" y="626" type="line"/>
      <point x="16" y="561" type="line"/>
      <point x="16" y="497" type="line"/>
      <point x="106" y="477" type="line"/>
      <point x="113" y="426"/>
      <point x="117" y="389"/>
      <point x="117" y="335" type="curve"/>
      <point x="116" y="229" type="line" smooth="yes"/>
      <point x="114" y="166"/>
      <point x="110" y="101"/>
      <point x="109" y="89" type="curve"/>
      <point x="21" y="64" type="line"/>
    </contour>
  </outline>
</glyph>
<glyph name="u" format="2">
  <advance width="821"/>
  <unicode hex="0075"/>
  <note>
u
</note>
  <anchor x="408" y="618" name="above"/>
  <anchor x="408" y="0" name="below"/>
  <anchor x="617" y="0" name="ogonek"/>
  <anchor x="670" y="618" name="topright"/>
  <outline>
    <contour>
      <point x="713" y="128" type="line"/>
      <point x="707" y="191"/>
      <point x="706" y="237"/>
      <point x="706" y="278" type="curve" smooth="yes"/>
      <point x="706" y="391" type="line" smooth="yes"/>
      <point x="706" y="496"/>
      <point x="706" y="558"/>
      <point x="710" y="602" type="curve"/>
      <point x="671" y="626" type="line"/>
      <point x="415" y="561" type="line"/>
      <point x="415" y="497" type="line"/>
      <point x="513" y="477" type="line"/>
      <point x="518" y="425"/>
      <point x="520" y="390"/>
      <point x="520" y="317" type="curve" smooth="yes"/>
      <point x="520" y="188" type="line"/>
      <point x="492" y="142"/>
      <point x="449" y="124"/>
      <point x="413" y="124" type="curve" smooth="yes"/>
      <point x="339" y="124"/>
      <point x="294" y="167"/>
      <point x="294" y="263" type="curve"/>
      <point x="295" y="378" type="line"/>
      <point x="295" y="460"/>
      <point x="299" y="546"/>
      <point x="303" y="601" type="curve"/>
      <point x="261" y="626" type="line"/>
      <point x="4" y="561" type="line"/>
      <point x="4" y="497" type="line"/>
      <point x="100" y="477" type="line"/>
      <point x="104" y="442"/>
      <point x="106" y="404"/>
      <point x="106" y="360" type="curve" smooth="yes"/>
      <point x="106" y="240" type="line" smooth="yes"/>
      <point x="106" y="71"/>
      <point x="198" y="-13"/>
      <point x="334" y="-13" type="curve" smooth="yes"/>
      <point x="402" y="-13"/>
      <point x="468" y="14"/>
      <point x="521" y="104" type="curve"/>
      <point x="525" y="102" type="line"/>
      <point x="524" y="2" type="line"/>
      <point x="563" y="-18" type="line"/>
      <point x="806" y="47" type="line"/>
      <point x="806" y="108" type="line"/>
    </contour>
  </outline>
</glyph>
<glyph name="w" format="2">
  <advance width="1152"/>
  <unicode hex="0077"/>
  <note>
w
</note>
  <anchor x="625" y="618" name="above"/>
  <anchor x="570" y="0" name="below"/>
  <outline>
    <contour>
      <point x="762" y="-5" type="line"/>
      <point x="826" y="-5" type="line"/>
      <point x="1095" y="528" type="line"/>
      <point x="1161" y="553" type="line"/>
      <point x="1157" y="618" type="line"/>
      <point x="917" y="618" type="line"/>
      <point x="913" y="553" type="line"/>
      <point x="986" y="528" type="line"/>
      <point x="840" y="193" type="line"/>
      <point x="875" y="192" type="line"/>
      <point x="734" y="528" type="line"/>
      <point x="807" y="553" type="line"/>
      <point x="804" y="618" type="line"/>
      <point x="455" y="618" type="line"/>
      <point x="451" y="553" type="line"/>
      <point x="517" y="528" type="line"/>
    </contour>
    <contour>
      <point x="314" y="-5" type="line"/>
      <point x="378" y="-5" type="line"/>
      <point x="602" y="435" type="line"/>
      <point x="550" y="529" type="line"/>
      <point x="392" y="193" type="line"/>
      <point x="432" y="192" type="line"/>
      <point x="284" y="528" type="line"/>
      <point x="350" y="553" type="line"/>
      <point x="346" y="618" type="line"/>
      <point x="1" y="618" type="line"/>
      <point x="-3" y="553" type="line"/>
      <point x="62" y="528" type="line"/>
    </contour>
  </outline>
</glyph>
<glyph name="y" format="2">
  <advance width="703"/>
  <unicode hex="0079"/>
  <note>
y
</note>
  <anchor x="407" y="618" name="above"/>
  <anchor x="465" y="0" name="below"/>
  <outline>
    <contour>
      <point x="316" y="-5" type="line"/>
      <point x="432" y="192" type="line"/>
      <point x="278" y="528" type="line"/>
      <point x="365" y="553" type="line"/>
      <point x="361" y="618" type="line"/>
      <point x="-3" y="618" type="line"/>
      <point x="-7" y="553" type="line"/>
      <point x="57" y="528" type="line"/>
    </contour>
    <contour>
      <point x="711" y="618" type="line"/>
      <point x="455" y="618" type="line"/>
      <point x="451" y="553" type="line"/>
      <point x="538" y="528" type="line"/>
      <point x="391" y="193" type="line"/>
      <point x="371" y="158" type="line"/>
      <point x="201" y="-157" type="line"/>
      <point x="296" y="-93" type="line"/>
      <point x="128" y="-139" type="line" smooth="yes"/>
      <point x="60" y="-157"/>
      <point x="25" y="-194"/>
      <point x="25" y="-239" type="curve" smooth="yes"/>
      <point x="25" y="-283"/>
      <point x="66" y="-319"/>
      <point x="130" y="-319" type="curve" smooth="yes"/>
      <point x="189" y="-319"/>
      <point x="241" y="-292"/>
      <point x="293" y="-185" type="curve" smooth="yes"/>
      <point x="404" y="45" type="line"/>
      <point x="649" y="528" type="line"/>
      <point x="716" y="553" type="line"/>
    </contour>
  </outline>
</glyph>
<glyph name="z" format="2">
  <advance width="663"/>
  <unicode hex="007A"/>
  <note>
z
</note>
  <anchor x="334" y="618" name="above"/>
  <anchor x="334" y="0" name="below"/>
  <outline>
    <contour>
      <point x="262" y="25" type="line"/>
      <point x="602" y="552" type="line"/>
      <point x="602" y="621" type="line"/>
      <point x="561" y="619"/>
      <point x="518" y="618"/>
      <point x="478" y="618" type="curve" smooth="yes"/>
      <point x="196" y="618" type="line" smooth="yes"/>
      <point x="157" y="618"/>
      <point x="96" y="618"/>
      <point x="46" y="620" type="curve"/>
      <point x="50" y="410" type="line"/>
      <point x="141" y="410" type="line"/>
      <point x="160" y="527" type="line"/>
      <point x="189" y="531"/>
      <point x="223" y="534"/>
      <point x="274" y="534" type="curve" smooth="yes"/>
      <point x="415" y="534" type="line"/>
      <point x="414" y="591" type="line"/>
      <point x="65" y="63" type="line"/>
      <point x="65" y="-4" type="line"/>
      <point x="106" y="0"/>
      <point x="149" y="0"/>
      <point x="188" y="0" type="curve" smooth="yes"/>
      <point x="468" y="0" type="line" smooth="yes"/>
      <point x="507" y="0"/>
      <point x="568" y="0"/>
      <point x="616" y="-2" type="curve"/>
      <point x="644" y="214" type="line"/>
      <point x="552" y="214" type="line"/>
      <point x="513" y="91" type="line"/>
      <point x="483" y="88"/>
      <point x="452" y="85"/>
      <point x="415" y="85" type="curve" smooth="yes"/>
      <point x="252" y="85" type="line"/>
    </contour>
  </outline>
</glyph>
<glyph name="braceleft" format="2">
  <advance width="535"/>
  <unicode hex="007B"/>
  <note>
braceleft
</note>
  <outline>
    <contour>
      <point x="348" y="-107" type="curve" smooth="yes"/>
      <point x="348" y="-12"/>
      <point x="403" y="56"/>
      <point x="403" y="168" type="curve" smooth="yes"/>
      <point x="403" y="274"/>
      <point x="325" y="356"/>
      <point x="207" y="370" type="curve"/>
      <point x="207" y="350" type="line"/>
      <point x="324" y="364"/>
      <point x="403" y="429"/>
      <point x="403" y="535" type="curve" smooth="yes"/>
      <point x="403" y="647"/>
      <point x="348" y="717"/>
      <point x="348" y="812" type="curve" smooth="yes"/>
      <point x="348" y="901"/>
      <point x="406" y="939"/>
      <point x="487" y="950" type="curve"/>
      <point x="467" y="1024" type="line"/>
      <point x="264" y="1001"/>
      <point x="134" y="932"/>
      <point x="134" y="788" type="curve" smooth="yes"/>
      <point x="134" y="684"/>
      <point x="212" y="583"/>
      <point x="212" y="499" type="curve" smooth="yes"/>
      <point x="212" y="435"/>
      <point x="185" y="401"/>
      <point x="69" y="397" type="curve"/>
      <point x="69" y="306" type="line"/>
      <point x="185" y="301"/>
      <point x="212" y="268"/>
      <point x="212" y="204" type="curve" smooth="yes"/>
      <point x="212" y="120"/>
      <point x="134" y="20"/>
      <point x="134" y="-83" type="curve" smooth="yes"/>
      <point x="134" y="-227"/>
      <point x="264" y="-296"/>
      <point x="467" y="-319" type="curve"/>
      <point x="487" y="-245" type="line"/>
      <point x="406" y="-234"/>
      <point x="348" y="-196"/>
    </contour>
  </outline>
</glyph>
<glyph name="cent" format="2">
  <advance width="648"/>
  <unicode hex="00A2"/>
  <note>
cent
</note>
  <outline>
    <contour>
      <point x="365" y="-10" type="curve" smooth="yes"/>
      <point x="474" y="-10"/>
      <point x="575" y="48"/>
      <point x="629" y="164" type="curve"/>
      <point x="585" y="206" type="line"/>
      <point x="535" y="146"/>
      <point x="483" y="127"/>
      <point x="432" y="127" type="curve" smooth="yes"/>
      <point x="329" y="127"/>
      <point x="251" y="201"/>
      <point x="251" y="344" type="curve" smooth="yes"/>
      <point x="251" y="488"/>
      <point x="337" y="561"/>
      <point x="418" y="544" type="curve"/>
      <point x="345" y="560" type="line"/>
      <point x="451" y="469" type="line" smooth="yes"/>
      <point x="486" y="438"/>
      <point x="509" y="427"/>
      <point x="546" y="427" type="curve" smooth="yes"/>
      <point x="586" y="427"/>
      <point x="621" y="451"/>
      <point x="621" y="498" type="curve" smooth="yes"/>
      <point x="621" y="573"/>
      <point x="523" y="629"/>
      <point x="399" y="629" type="curve" smooth="yes"/>
      <point x="193" y="629"/>
      <point x="47" y="472"/>
      <point x="47" y="293" type="curve" smooth="yes"/>
      <point x="47" y="115"/>
      <point x="188" y="-10"/>
    </contour>
    <contour>
      <point x="360" y="-162" type="line"/>
      <point x="445" y="-162" type="line"/>
      <point x="445" y="770" type="line"/>
      <point x="360" y="770" type="line"/>
    </contour>
  </outline>
</glyph>
<glyph name="sterling" format="2">
  <advance width="792"/>
  <unicode hex="00A3"/>
  <note>
sterling
</note>
  <outline>
    <contour>
      <point x="73" y="-17" type="line"/>
      <point x="200" y="21"/>
      <point x="233" y="25"/>
      <point x="280" y="25" type="curve" smooth="yes"/>
      <point x="387" y="25"/>
      <point x="414" y="-12"/>
      <point x="556" y="-12" type="curve" smooth="yes"/>
      <point x="670" y="-12"/>
      <point x="753" y="72"/>
      <point x="794" y="201" type="curve"/>
      <point x="731" y="232" type="line"/>
      <point x="700" y="171"/>
      <point x="675" y="148"/>
      <point x="611" y="148" type="curve" smooth="yes"/>
      <point x="549" y="148"/>
      <point x="488" y="175"/>
      <point x="432" y="175" type="curve" smooth="yes"/>
      <point x="362" y="175"/>
      <point x="320" y="145"/>
      <point x="199" y="65" type="curve"/>
      <point x="206" y="43" type="line"/>
      <point x="368" y="184"/>
      <point x="393" y="235"/>
      <point x="393" y="344" type="curve" smooth="yes"/>
      <point x="393" y="448"/>
      <point x="330" y="543"/>
      <point x="330" y="628" type="curve" smooth="yes"/>
      <point x="330" y="708"/>
      <point x="385" y="768"/>
      <point x="489" y="755" type="curve"/>
      <point x="419" y="795" type="line"/>
      <point x="554" y="671" type="line" smooth="yes"/>
      <point x="585" y="644"/>
      <point x="610" y="634"/>
      <point x="646" y="634" type="curve" smooth="yes"/>
      <point x="691" y="634"/>
      <point x="722" y="666"/>
      <point x="722" y="708" type="curve" smooth="yes"/>
      <point x="722" y="786"/>
      <point x="626" y="836"/>
      <point x="483" y="836" type="curve" smooth="yes"/>
      <point x="266" y="836"/>
      <point x="120" y="726"/>
      <point x="120" y="571" type="curve" smooth="yes"/>
      <point x="120" y="490"/>
      <point x="215" y="369"/>
      <point x="215" y="232" type="curve" smooth="yes"/>
      <point x="215" y="133"/>
      <point x="175" y="90"/>
      <point x="57" y="59" type="curve"/>
    </contour>
    <contour>
      <point x="35" y="383" type="line"/>
      <point x="606" y="383" type="line"/>
      <point x="606" y="469" type="line"/>
      <point x="35" y="469" type="line"/>
    </contour>
  </outline>
</glyph>
<glyph name="yen" format="2">
  <advance width="830"/>
  <unicode hex="00A5"/>
  <note>
yen
</note>
  <outline>
    <contour>
      <point x="111" y="344" type="line"/>
      <point x="714" y="344" type="line"/>
      <point x="714" y="427" type="line"/>
      <point x="111" y="427" type="line"/>
    </contour>
    <contour>
      <point x="111" y="181" type="line"/>
      <point x="714" y="181" type="line"/>
      <point x="714" y="265" type="line"/>
      <point x="111" y="265" type="line"/>
    </contour>
    <contour>
      <point x="745" y="729" type="line"/>
      <point x="817" y="752" type="line"/>
      <point x="811" y="824" type="line"/>
      <point x="532" y="824" type="line"/>
      <point x="528" y="752" type="line"/>
      <point x="626" y="729" type="line"/>
      <point x="451" y="424" type="line"/>
      <point x="485" y="424" type="line"/>
      <point x="307" y="729" type="line"/>
      <point x="397" y="752" type="line"/>
      <point x="393" y="824" type="line"/>
      <point x="16" y="824" type="line"/>
      <point x="12" y="752" type="line"/>
      <point x="82" y="729" type="line"/>
      <point x="363" y="252" type="line"/>
      <point x="316" y="396" type="line"/>
      <point x="316" y="255" type="line" smooth="yes"/>
      <point x="316" y="194"/>
      <point x="315" y="105"/>
      <point x="309" y="93" type="curve"/>
      <point x="211" y="72" type="line"/>
      <point x="216" y="0" type="line"/>
      <point x="613" y="0" type="line"/>
      <point x="617" y="72" type="line"/>
      <point x="519" y="93" type="line"/>
      <point x="513" y="105"/>
      <point x="511" y="194"/>
      <point x="511" y="255" type="curve" smooth="yes"/>
      <point x="511" y="396" type="line"/>
      <point x="446" y="252" type="line"/>
    </contour>
  </outline>
</glyph>
<glyph name="brokenbar" format="2">
  <advance width="376"/>
  <unicode hex="00A6"/>
  <note>
brokenbar
</note>
  <outline>
    <contour>
      <point x="126" y="490" type="line"/>
      <point x="250" y="490" type="line"/>
      <point x="250" y="1013" type="line"/>
      <point x="126" y="1013" type="line"/>
    </contour>
    <contour>
      <point x="126" y="-308" type="line"/>
      <point x="250" y="-308" type="line"/>
      <point x="250" y="212" type="line"/>
      <point x="126" y="212" type="line"/>
    </contour>
  </outline>
</glyph>
<glyph name="logicalnot" format="2">
  <advance width="757"/>
  <unicode hex="00AC"/>
  <outline>
    <contour>
      <point x="683" y="545" type="line"/>
      <point x="74" y="545" type="line"/>
      <point x="74" y="420" type="line"/>
      <point x="561" y="420" type="line"/>
      <point x="561" y="168" type="line"/>
      <point x="683" y="168" type="line"/>
    </contour>
  </outline>
</glyph>
<glyph name="plusminus" format="2">
  <advance width="757"/>
  <unicode hex="00B1"/>
  <outline>
    <contour>
      <point x="683" y="479" type="line"/>
      <point x="74" y="479" type="line"/>
      <point x="74" y="359" type="line"/>
      <point x="683" y="359" type="line"/>
    </contour>
    <contour>
      <point x="316" y="663" type="line"/>
      <point x="316" y="174" type="line"/>
      <point x="439" y="174" type="line"/>
      <point x="439" y="663" type="line"/>
    </contour>
    <contour>
      <point x="683" y="122" type="line"/>
      <point x="74" y="122" type="line"/>
      <point x="74" y="0" type="line"/>
      <point x="683" y="0" type="line"/>
    </contour>
  </outline>
</glyph>
<glyph name="paragraph" format="2">
  <advance width="824"/>
  <unicode hex="00B6"/>
  <note>
paragraph
</note>
  <outline>
    <contour>
      <point x="771" y="0" type="line"/>
      <point x="775" y="71" type="line"/>
      <point x="687" y="93" type="line"/>
      <point x="683" y="108"/>
      <point x="679" y="210"/>
      <point x="679" y="311" type="curve" smooth="yes"/>
      <point x="679" y="511" type="line" smooth="yes"/>
      <point x="679" y="615"/>
      <point x="683" y="716"/>
      <point x="687" y="729" type="curve"/>
      <point x="777" y="752" type="line"/>
      <point x="772" y="824" type="line"/>
      <point x="385" y="824" type="line" smooth="yes"/>
      <point x="182" y="824"/>
      <point x="33" y="721"/>
      <point x="33" y="564" type="curve" smooth="yes"/>
      <point x="33" y="396"/>
      <point x="169" y="302"/>
      <point x="408" y="302" type="curve" smooth="yes"/>
      <point x="476" y="302"/>
      <point x="534" y="309"/>
      <point x="628" y="333" type="curve"/>
      <point x="628" y="435" type="line"/>
      <point x="548" y="411"/>
      <point x="488" y="401"/>
      <point x="415" y="401" type="curve" smooth="yes"/>
      <point x="304" y="401"/>
      <point x="240" y="470"/>
      <point x="240" y="589" type="curve" smooth="yes"/>
      <point x="240" y="689"/>
      <point x="308" y="743"/>
      <point x="403" y="743" type="curve" smooth="yes"/>
      <point x="426" y="743" type="line"/>
      <point x="427" y="718"/>
      <point x="426" y="655"/>
      <point x="426" y="477" type="curve" smooth="yes"/>
      <point x="426" y="237" type="line" smooth="yes"/>
      <point x="426" y="184"/>
      <point x="420" y="105"/>
      <point x="417" y="94" type="curve"/>
      <point x="303" y="73" type="line"/>
      <point x="307" y="0" type="line"/>
    </contour>
    <contour>
      <point x="523" y="743" type="line"/>
      <point x="597" y="743" type="line"/>
      <point x="590" y="79" type="line"/>
      <point x="523" y="79" type="line"/>
    </contour>
  </outline>
</glyph>
<glyph name="periodcentered" format="2">
  <advance width="423"/>
  <unicode hex="00B7"/>
  <note>
periodcentered
</note>
  <outline>
    <contour>
      <point x="211" y="179" type="curve" smooth="yes"/>
      <point x="287" y="179"/>
      <point x="347" y="238"/>
      <point x="347" y="311" type="curve" smooth="yes"/>
      <point x="347" y="386"/>
      <point x="287" y="447"/>
      <point x="211" y="447" type="curve" smooth="yes"/>
      <point x="137" y="447"/>
      <point x="76" y="386"/>
      <point x="76" y="311" type="curve" smooth="yes"/>
      <point x="76" y="238"/>
      <point x="137" y="179"/>
    </contour>
  </outline>
</glyph>
<glyph name="AE" format="2">
  <advance width="1176"/>
  <unicode hex="00C6"/>
  <note>
AE
</note>
  <anchor x="613" y="824" name="above"/>
  <anchor x="613" y="0" name="below"/>
  <outline>
    <contour>
      <point x="1088" y="-8" type="curve"/>
      <point x="1153" y="220" type="line"/>
      <point x="1072" y="236" type="line"/>
      <point x="994" y="94" type="line"/>
      <point x="971" y="91"/>
      <point x="966" y="89"/>
      <point x="896" y="89" type="curve" smooth="yes"/>
      <point x="836" y="89" type="line" smooth="yes"/>
      <point x="788" y="89"/>
      <point x="752" y="91"/>
      <point x="710" y="94" type="curve"/>
      <point x="708" y="117"/>
      <point x="708" y="131"/>
      <point x="708" y="274" type="curve" smooth="yes"/>
      <point x="708" y="562" type="line" smooth="yes"/>
      <point x="708" y="680"/>
      <point x="709" y="719"/>
      <point x="710" y="735" type="curve"/>
      <point x="732" y="739"/>
      <point x="768" y="740"/>
      <point x="805" y="740" type="curve" smooth="yes"/>
      <point x="891" y="740" type="line" smooth="yes"/>
      <point x="914" y="740"/>
      <point x="931" y="739"/>
      <point x="957" y="733" type="curve"/>
      <point x="1010" y="609" type="line"/>
      <point x="1092" y="621" type="line"/>
      <point x="1055" y="831" type="line"/>
      <point x="1005" y="830"/>
      <point x="894" y="824"/>
      <point x="834" y="824" type="curve" smooth="yes"/>
      <point x="391" y="824" type="line"/>
      <point x="387" y="752" type="line"/>
      <point x="520" y="729" type="line"/>
      <point x="507" y="784" type="line"/>
      <point x="42" y="93" type="line"/>
      <point x="-33" y="71" type="line"/>
      <point x="-29" y="0" type="line"/>
      <point x="242" y="0" type="line"/>
      <point x="246" y="71" type="line"/>
      <point x="157" y="93" type="line"/>
      <point x="563" y="717" type="line"/>
      <point x="516" y="703" type="line"/>
      <point x="516" y="268" type="line" smooth="yes"/>
      <point x="516" y="193"/>
      <point x="515" y="135"/>
      <point x="512" y="93" type="curve"/>
      <point x="423" y="71" type="line"/>
      <point x="427" y="0" type="line"/>
      <point x="889" y="0" type="line" smooth="yes"/>
      <point x="948" y="0"/>
      <point x="1041" y="-5"/>
    </contour>
    <contour>
      <point x="215" y="223" type="line"/>
      <point x="250" y="226"/>
      <point x="301" y="229"/>
      <point x="378" y="229" type="curve" smooth="yes"/>
      <point x="427" y="229"/>
      <point x="481" y="229"/>
      <point x="550" y="225" type="curve"/>
      <point x="550" y="322" type="line"/>
      <point x="498" y="317"/>
      <point x="447" y="316"/>
      <point x="378" y="316" type="curve" smooth="yes"/>
      <point x="297" y="316"/>
      <point x="283" y="319"/>
      <point x="245" y="322" type="curve"/>
    </contour>
    <contour>
      <point x="908" y="279" type="line"/>
      <point x="987" y="279" type="line"/>
      <point x="987" y="564" type="line"/>
      <point x="908" y="564" type="line"/>
      <point x="894" y="472" type="line"/>
      <point x="882" y="470"/>
      <point x="849" y="469"/>
      <point x="812" y="469" type="curve" smooth="yes"/>
      <point x="755" y="469" type="line" smooth="yes"/>
      <point x="722" y="469"/>
      <point x="692" y="472"/>
      <point x="677" y="473" type="curve"/>
      <point x="677" y="372" type="line"/>
      <point x="692" y="373"/>
      <point x="722" y="376"/>
      <point x="755" y="376" type="curve" smooth="yes"/>
      <point x="812" y="376" type="line" smooth="yes"/>
      <point x="849" y="376"/>
      <point x="882" y="374"/>
      <point x="894" y="374" type="curve"/>
    </contour>
  </outline>
</glyph>
<glyph name="multiply" format="2">
  <advance width="757"/>
  <unicode hex="00D7"/>
  <outline>
    <contour>
      <point x="585" y="650" type="line"/>
      <point x="86" y="153" type="line"/>
      <point x="171" y="66" type="line"/>
      <point x="671" y="562" type="line"/>
    </contour>
    <contour>
      <point x="171" y="650" type="line"/>
      <point x="86" y="562" type="line"/>
      <point x="585" y="66" type="line"/>
      <point x="671" y="153" type="line"/>
    </contour>
  </outline>
</glyph>
<glyph name="idotless" format="2">
  <advance width="421"/>
  <unicode hex="0131"/>
  <note>
dotlessi
</note>
  <anchor x="211" y="618" name="above"/>
  <anchor x="211" y="0" name="below"/>
  <anchor x="292" y="0" name="ogonek"/>
  <outline>
    <contour>
      <point x="20" y="0" type="line"/>
      <point x="401" y="0" type="line"/>
      <point x="405" y="67" type="line"/>
      <point x="312" y="89" type="line"/>
      <point x="308" y="103"/>
      <point x="304" y="168"/>
      <point x="304" y="229" type="curve" smooth="yes"/>
      <point x="304" y="408" type="line" smooth="yes"/>
      <point x="304" y="484"/>
      <point x="308" y="541"/>
      <point x="313" y="601" type="curve"/>
      <point x="273" y="626" type="line"/>
      <point x="11" y="561" type="line"/>
      <point x="11" y="497" type="line"/>
      <point x="106" y="477" type="line"/>
      <point x="113" y="429"/>
      <point x="117" y="390"/>
      <point x="117" y="333" type="curve"/>
      <point x="116" y="229" type="line"/>
      <point x="114" y="163"/>
      <point x="110" y="101"/>
      <point x="109" y="89" type="curve"/>
      <point x="16" y="67" type="line"/>
    </contour>
  </outline>
</glyph>
<glyph name="OE" format="2">
  <advance width="1301"/>
  <unicode hex="0152"/>
  <note>
OE
</note>
  <anchor x="742" y="824" name="above"/>
  <anchor x="742" y="0" name="below"/>
  <outline>
    <contour>
      <point x="530" y="-12" type="curve" smooth="yes"/>
      <point x="596" y="-12"/>
      <point x="653" y="0"/>
      <point x="729" y="0" type="curve" smooth="yes"/>
      <point x="1014" y="0" type="line" smooth="yes"/>
      <point x="1073" y="0"/>
      <point x="1162" y="-2"/>
      <point x="1214" y="-8" type="curve"/>
      <point x="1278" y="220" type="line"/>
      <point x="1197" y="236" type="line"/>
      <point x="1120" y="94" type="line"/>
      <point x="1096" y="91"/>
      <point x="1090" y="89"/>
      <point x="1020" y="89" type="curve" smooth="yes"/>
      <point x="967" y="89" type="line" smooth="yes"/>
      <point x="914" y="89"/>
      <point x="881" y="91"/>
      <point x="844" y="97" type="curve"/>
      <point x="841" y="122"/>
      <point x="840" y="178"/>
      <point x="840" y="274" type="curve" smooth="yes"/>
      <point x="840" y="562" type="line" smooth="yes"/>
      <point x="840" y="657"/>
      <point x="841" y="713"/>
      <point x="844" y="735" type="curve"/>
      <point x="861" y="739"/>
      <point x="893" y="740"/>
      <point x="934" y="740" type="curve" smooth="yes"/>
      <point x="1018" y="740" type="line" smooth="yes"/>
      <point x="1040" y="740"/>
      <point x="1057" y="739"/>
      <point x="1084" y="733" type="curve"/>
      <point x="1137" y="609" type="line"/>
      <point x="1219" y="621" type="line"/>
      <point x="1180" y="831" type="line"/>
      <point x="1125" y="826"/>
      <point x="1021" y="824"/>
      <point x="961" y="824" type="curve" smooth="yes"/>
      <point x="734" y="824" type="line" smooth="yes"/>
      <point x="665" y="824"/>
      <point x="607" y="831"/>
      <point x="557" y="831" type="curve" smooth="yes"/>
      <point x="207" y="831"/>
      <point x="61" y="620"/>
      <point x="61" y="402" type="curve" smooth="yes"/>
      <point x="61" y="150"/>
      <point x="247" y="-12"/>
    </contour>
    <contour>
      <point x="552" y="91" type="curve" smooth="yes"/>
      <point x="391" y="91"/>
      <point x="292" y="220"/>
      <point x="292" y="430" type="curve" smooth="yes"/>
      <point x="292" y="616"/>
      <point x="390" y="737"/>
      <point x="546" y="737" type="curve" smooth="yes"/>
      <point x="580" y="737"/>
      <point x="615" y="733"/>
      <point x="637" y="726" type="curve"/>
      <point x="642" y="701"/>
      <point x="645" y="602"/>
      <point x="645" y="522" type="curve" smooth="yes"/>
      <point x="645" y="316" type="line" smooth="yes"/>
      <point x="645" y="243"/>
      <point x="643" y="137"/>
      <point x="640" y="104" type="curve"/>
      <point x="611" y="96"/>
      <point x="578" y="91"/>
    </contour>
    <contour>
      <point x="1033" y="279" type="line"/>
      <point x="1113" y="279" type="line"/>
      <point x="1113" y="564" type="line"/>
      <point x="1033" y="564" type="line"/>
      <point x="1021" y="470" type="line"/>
      <point x="1007" y="472"/>
      <point x="976" y="469"/>
      <point x="939" y="469" type="curve" smooth="yes"/>
      <point x="886" y="469" type="line" smooth="yes"/>
      <point x="851" y="469"/>
      <point x="822" y="472"/>
      <point x="808" y="473" type="curve"/>
      <point x="808" y="372" type="line"/>
      <point x="822" y="373"/>
      <point x="851" y="376"/>
      <point x="886" y="376" type="curve" smooth="yes"/>
      <point x="939" y="376" type="line" smooth="yes"/>
      <point x="976" y="376"/>
      <point x="1007" y="373"/>
      <point x="1021" y="373" type="curve"/>
    </contour>
  </outline>
</glyph>
<glyph name="oe" format="2">
  <advance width="1132"/>
  <unicode hex="0153"/>
  <note>
oe
</note>
  <anchor x="602" y="618" name="above"/>
  <anchor x="602" y="0" name="below"/>
  <outline>
    <contour>
      <point x="380" y="-10" type="curve" smooth="yes"/>
      <point x="559" y="-10"/>
      <point x="670" y="134"/>
      <point x="670" y="316" type="curve" smooth="yes"/>
      <point x="670" y="499"/>
      <point x="554" y="629"/>
      <point x="373" y="629" type="curve" smooth="yes"/>
      <point x="191" y="629"/>
      <point x="47" y="491"/>
      <point x="47" y="302" type="curve" smooth="yes"/>
      <point x="47" y="116"/>
      <point x="188" y="-10"/>
    </contour>
    <contour>
      <point x="399" y="78" type="curve" smooth="yes"/>
      <point x="318" y="78"/>
      <point x="255" y="189"/>
      <point x="255" y="345" type="curve" smooth="yes"/>
      <point x="255" y="484"/>
      <point x="305" y="543"/>
      <point x="368" y="543" type="curve" smooth="yes"/>
      <point x="451" y="543"/>
      <point x="507" y="432"/>
      <point x="507" y="269" type="curve" smooth="yes"/>
      <point x="507" y="138"/>
      <point x="462" y="78"/>
    </contour>
    <contour>
      <point x="838" y="-10" type="curve" smooth="yes"/>
      <point x="942" y="-10"/>
      <point x="1044" y="48"/>
      <point x="1095" y="161" type="curve"/>
      <point x="1051" y="203" type="line"/>
      <point x="1003" y="147"/>
      <point x="954" y="126"/>
      <point x="890" y="126" type="curve" smooth="yes"/>
      <point x="771" y="126"/>
      <point x="696" y="213"/>
      <point x="696" y="342" type="curve" smooth="yes"/>
      <point x="696" y="375" type="line" smooth="yes"/>
      <point x="696" y="489"/>
      <point x="746" y="548"/>
      <point x="815" y="548" type="curve" smooth="yes"/>
      <point x="882" y="548"/>
      <point x="918" y="494"/>
      <point x="918" y="407" type="curve" smooth="yes"/>
      <point x="918" y="357" type="line"/>
      <point x="948" y="393" type="line"/>
      <point x="682" y="393" type="line"/>
      <point x="680" y="318" type="line"/>
      <point x="1086" y="318" type="line"/>
      <point x="1086" y="352" type="line" smooth="yes"/>
      <point x="1086" y="514"/>
      <point x="992" y="628"/>
      <point x="831" y="629" type="curve" smooth="yes"/>
      <point x="661" y="629"/>
      <point x="529" y="485"/>
      <point x="529" y="310" type="curve" smooth="yes"/>
      <point x="529" y="123"/>
      <point x="655" y="-10"/>
    </contour>
  </outline>
</glyph>
<glyph name="florin" format="2">
  <advance width="548"/>
  <unicode hex="0192"/>
  <outline>
    <contour>
      <point x="105" y="-322" type="curve" smooth="yes"/>
      <point x="242" y="-322"/>
      <point x="359" y="-192"/>
      <point x="359" y="98" type="curve" smooth="yes"/>
      <point x="359" y="524" type="line"/>
      <point x="356" y="615" type="line"/>
      <point x="356" y="720" type="line" smooth="yes"/>
      <point x="356" y="825"/>
      <point x="376" y="876"/>
      <point x="400" y="899" type="curve"/>
      <point x="457" y="848" type="line" smooth="yes"/>
      <point x="484" y="822"/>
      <point x="508" y="810"/>
      <point x="540" y="810" type="curve" smooth="yes"/>
      <point x="581" y="810"/>
      <point x="607" y="833"/>
      <point x="607" y="874" type="curve" smooth="yes"/>
      <point x="607" y="935"/>
      <point x="538" y="980"/>
      <point x="443" y="980" type="curve" smooth="yes"/>
      <point x="292" y="980"/>
      <point x="169" y="850"/>
      <point x="169" y="656" type="curve" smooth="yes"/>
      <point x="169" y="-8" type="line"/>
      <point x="169" y="-168"/>
      <point x="158" y="-218"/>
      <point x="146" y="-243" type="curve"/>
      <point x="90" y="-191" type="line" smooth="yes"/>
      <point x="63" y="-165"/>
      <point x="39" y="-153"/>
      <point x="6" y="-153" type="curve" smooth="yes"/>
      <point x="-33" y="-153"/>
      <point x="-59" y="-175"/>
      <point x="-59" y="-216" type="curve" smooth="yes"/>
      <point x="-59" y="-278"/>
      <point x="9" y="-322"/>
    </contour>
    <contour>
      <point x="65" y="524" type="line"/>
      <point x="505" y="524" type="line"/>
      <point x="505" y="615" type="line"/>
      <point x="252" y="615" type="line"/>
      <point x="169" y="620" type="line"/>
      <point x="134" y="606"/>
      <point x="101" y="596"/>
      <point x="65" y="591" type="curve"/>
    </contour>
  </outline>
</glyph>
<glyph name="glottalstopmod" format="2">
  <advance width="395"/>
  <unicode hex="02C0"/>
  <outline>
    <contour>
      <point x="181" y="965" type="line"/>
      <point x="228" y="965" type="line"/>
      <point x="228" y="971"/>
      <point x="228" y="982"/>
      <point x="228" y="987" type="curve" smooth="yes"/>
      <point x="228" y="1057"/>
      <point x="322" y="1063"/>
      <point x="322" y="1147" type="curve" smooth="yes"/>
      <point x="322" y="1211"/>
      <point x="264" y="1249"/>
      <point x="205" y="1249" type="curve" smooth="yes"/>
      <point x="150" y="1249"/>
      <point x="95" y="1216"/>
      <point x="85" y="1141" type="curve"/>
      <point x="132" y="1136" type="line"/>
      <point x="139" y="1184"/>
      <point x="175" y="1202"/>
      <point x="206" y="1202" type="curve" smooth="yes"/>
      <point x="243" y="1202"/>
      <point x="275" y="1178"/>
      <point x="275" y="1146" type="curve" smooth="yes"/>
      <point x="275" y="1088"/>
      <point x="181" y="1079"/>
      <point x="181" y="988" type="curve" smooth="yes"/>
    </contour>
  </outline>
</glyph>
<glyph name="ringhalfrightcentered" format="2">
  <advance width="638"/>
  <unicode hex="02D2"/>
  <outline>
    <contour>
      <point x="371" y="1085" type="curve" smooth="yes"/>
      <point x="371" y="1198"/>
      <point x="300" y="1314"/>
      <point x="278" y="1314" type="curve" smooth="yes"/>
      <point x="273" y="1314"/>
      <point x="268" y="1312"/>
      <point x="268" y="1305" type="curve" smooth="yes"/>
      <point x="268" y="1284"/>
      <point x="332" y="1217"/>
      <point x="332" y="1085" type="curve" smooth="yes"/>
      <point x="332" y="956"/>
      <point x="268" y="889"/>
      <point x="268" y="868" type="curve" smooth="yes"/>
      <point x="268" y="861"/>
      <point x="273" y="859"/>
      <point x="278" y="859" type="curve" smooth="yes"/>
      <point x="300" y="859"/>
      <point x="371" y="975"/>
    </contour>
  </outline>
</glyph>
<glyph name="ringcomb" format="2">
  <unicode hex="030A"/>
  <anchor x="118" y="0" name="_above"/>
  <anchor x="118" y="337" name="above"/>
  <outline>
    <contour>
      <point x="118" y="0" type="curve" smooth="yes"/>
      <point x="183" y="0"/>
      <point x="237" y="53"/>
      <point x="237" y="117" type="curve" smooth="yes"/>
      <point x="237" y="182"/>
      <point x="183" y="235"/>
      <point x="118" y="235" type="curve" smooth="yes"/>
      <point x="53" y="235"/>
      <point x="-2" y="182"/>
      <point x="-2" y="117" type="curve" smooth="yes"/>
      <point x="-2" y="53"/>
      <point x="53" y="0"/>
    </contour>
    <contour>
      <point x="118" y="40" type="curve" smooth="yes"/>
      <point x="75" y="40"/>
      <point x="38" y="74"/>
      <point x="38" y="117" type="curve" smooth="yes"/>
      <point x="38" y="161"/>
      <point x="74" y="195"/>
      <point x="118" y="195" type="curve" smooth="yes"/>
      <point x="162" y="195"/>
      <point x="198" y="161"/>
      <point x="198" y="117" type="curve" smooth="yes"/>
      <point x="198" y="74"/>
      <point x="162" y="40"/>
    </contour>
  </outline>
</glyph>
<glyph name="comma-ar" format="2">
  <advance width="490"/>
  <unicode hex="060C"/>
  <outline>
    <contour>
      <point x="339" y="404" type="line"/>
      <point x="179" y="339"/>
      <point x="103" y="228"/>
      <point x="103" y="97" type="curve" smooth="yes"/>
      <point x="103" y="-18"/>
      <point x="169" y="-61"/>
      <point x="228" y="-61" type="curve" smooth="yes"/>
      <point x="292" y="-61"/>
      <point x="339" y="-15"/>
      <point x="339" y="40" type="curve" smooth="yes"/>
      <point x="339" y="136"/>
      <point x="234" y="128"/>
      <point x="234" y="215" type="curve" smooth="yes"/>
      <point x="234" y="268"/>
      <point x="266" y="315"/>
      <point x="360" y="353" type="curve"/>
    </contour>
  </outline>
</glyph>
<glyph name="shadda-ar" format="2">
  <unicode hex="0651"/>
  <anchor x="150" y="0" name="_above"/>
  <anchor x="135" y="390" name="above"/>
  <outline>
    <contour>
      <point x="5" y="27"/>
      <point x="39" y="-2"/>
      <point x="75" y="-2" type="curve" smooth="yes"/>
      <point x="115" y="-2"/>
      <point x="157" y="33"/>
      <point x="160" y="107" type="curve"/>
      <point x="132" y="92" type="line"/>
      <point x="144" y="63"/>
      <point x="170" y="47"/>
      <point x="197" y="47" type="curve" smooth="yes"/>
      <point x="241" y="47"/>
      <point x="288" y="87"/>
      <point x="288" y="174" type="curve" smooth="yes"/>
      <point x="288" y="204"/>
      <point x="283" y="235"/>
      <point x="277" y="261" type="curve"/>
      <point x="259" y="253" type="line"/>
      <point x="259" y="178"/>
      <point x="235" y="136"/>
      <point x="208" y="136" type="curve" smooth="yes"/>
      <point x="186" y="136"/>
      <point x="167" y="161"/>
      <point x="161" y="214" type="curve"/>
      <point x="143" y="210" type="line"/>
      <point x="140" y="127"/>
      <point x="112" y="79"/>
      <point x="79" y="79" type="curve" smooth="yes"/>
      <point x="54" y="79"/>
      <point x="43" y="107"/>
      <point x="43" y="169" type="curve"/>
      <point x="25" y="166" type="line"/>
      <point x="12" y="138"/>
      <point x="5" y="108"/>
      <point x="5" y="82" type="curve" smooth="yes"/>
    </contour>
  </outline>
</glyph>
<glyph name="paragraph-syriac" format="2">
  <advance width="920"/>
  <unicode hex="0700"/>
  <outline>
    <contour>
      <point x="654" y="105" type="line"/>
      <point x="662" y="105" type="line"/>
      <point x="773" y="216" type="line"/>
      <point x="706" y="277"/>
      <point x="667" y="312"/>
      <point x="656" y="321" type="curve"/>
      <point x="546" y="213" type="line"/>
    </contour>
    <contour>
      <point x="443" y="-100" type="line"/>
      <point x="451" y="-100" type="line"/>
      <point x="558" y="14" type="line"/>
      <point x="451" y="116" type="line"/>
      <point x="337" y="9" type="line"/>
    </contour>
    <contour>
      <point x="246" y="97" type="line"/>
      <point x="351" y="194" type="line"/>
      <point x="361" y="213" type="line"/>
      <point x="254" y="312" type="line"/>
      <point x="143" y="198" type="line"/>
    </contour>
    <contour>
      <point x="456" y="304" type="line"/>
      <point x="558" y="408" type="line"/>
      <point x="537" y="437"/>
      <point x="502" y="472"/>
      <point x="454" y="514" type="curve"/>
      <point x="448" y="514" type="line"/>
      <point x="340" y="407" type="line"/>
    </contour>
  </outline>
</glyph>
<glyph name="harkleanMetobelus-syriac" format="2">
  <advance width="829"/>
  <unicode hex="070C"/>
  <outline>
    <contour>
      <point x="547" y="325" type="line"/>
      <point x="708" y="325" type="line"/>
      <point x="708" y="490" type="line"/>
      <point x="649" y="429" type="line"/>
      <point x="161" y="916" type="line"/>
      <point x="118" y="874" type="line"/>
      <point x="606" y="385" type="line"/>
    </contour>
  </outline>
</glyph>
<glyph name="waw-syriac" format="2">
  <advance width="707"/>
  <unicode hex="0718"/>
  <anchor x="359" y="750" name="above"/>
  <anchor x="50" y="750" name="aboveleft"/>
  <anchor x="359" y="-150" name="below"/>
  <anchor x="50" y="-150" name="belowleft"/>
  <outline>
    <contour>
      <point x="359" y="-12" type="curve" smooth="yes"/>
      <point x="519" y="-12"/>
      <point x="657" y="34"/>
      <point x="657" y="226" type="curve" smooth="yes"/>
      <point x="657" y="401"/>
      <point x="548" y="612"/>
      <point x="359" y="612" type="curve" smooth="yes"/>
      <point x="181" y="612"/>
      <point x="50" y="418"/>
      <point x="50" y="244" type="curve" smooth="yes"/>
      <point x="50" y="168"/>
      <point x="74" y="97"/>
      <point x="131" y="47" type="curve" smooth="yes"/>
      <point x="183" y="1"/>
      <point x="255" y="-12"/>
    </contour>
    <contour>
      <point x="489" y="202" type="curve"/>
      <point x="463" y="188"/>
      <point x="422" y="183"/>
      <point x="383" y="183" type="curve" smooth="yes"/>
      <point x="298" y="183"/>
      <point x="218" y="204"/>
      <point x="218" y="292" type="curve" smooth="yes"/>
      <point x="218" y="363"/>
      <point x="282" y="417"/>
      <point x="349" y="417" type="curve" smooth="yes"/>
      <point x="421" y="417"/>
      <point x="496" y="354"/>
    </contour>
  </outline>
</glyph>
<glyph name="taw-syriac" format="2">
  <advance width="899"/>
  <unicode hex="072C"/>
  <anchor x="305" y="975" name="above"/>
  <anchor x="50" y="975" name="aboveleft"/>
  <anchor x="365" y="-150" name="below"/>
  <anchor x="50" y="-150" name="belowleft"/>
  <outline>
    <contour>
      <point x="593" y="-23" type="curve" smooth="yes"/>
      <point x="605" y="-23"/>
      <point x="609" y="-16"/>
      <point x="609" y="-1" type="curve" smooth="yes"/>
      <point x="609" y="73"/>
      <point x="422" y="289"/>
      <point x="208" y="289" type="curve" smooth="yes"/>
      <point x="178" y="289"/>
      <point x="146" y="286"/>
      <point x="115" y="278" type="curve"/>
      <point x="137" y="150" type="line"/>
      <point x="296" y="622" type="line"/>
      <point x="252" y="588" type="line"/>
      <point x="380" y="461"/>
      <point x="599" y="207"/>
      <point x="769" y="0" type="curve"/>
      <point x="790" y="0"/>
      <point x="849" y="134"/>
      <point x="849" y="192" type="curve" smooth="yes"/>
      <point x="849" y="204"/>
      <point x="847" y="213"/>
      <point x="842" y="219" type="curve" smooth="yes"/>
      <point x="572" y="539"/>
      <point x="319" y="831"/>
      <point x="305" y="831" type="curve" smooth="yes"/>
      <point x="294" y="831"/>
      <point x="286" y="818"/>
      <point x="275" y="793" type="curve" smooth="yes"/>
      <point x="271" y="784"/>
      <point x="50" y="198"/>
      <point x="50" y="100" type="curve" smooth="yes"/>
      <point x="50" y="-2"/>
      <point x="117" y="-18"/>
      <point x="146" y="-18" type="curve" smooth="yes"/>
      <point x="238" y="-18"/>
      <point x="359" y="92"/>
      <point x="426" y="92" type="curve" smooth="yes"/>
      <point x="483" y="92"/>
      <point x="552" y="-23"/>
    </contour>
  </outline>
</glyph>
<glyph name="zqaphaabove-syriac" format="2">
  <unicode hex="0733"/>
  <anchor x="105" y="45" name="_above"/>
  <anchor x="120" y="480" name="above"/>
  <outline>
    <contour>
      <point x="170" y="192"/>
      <point x="51" y="76"/>
      <point x="10" y="51" type="curve"/>
      <point x="-2" y="28"/>
      <point x="-6" y="-20"/>
      <point x="0" y="-20" type="curve"/>
      <point x="82" y="36"/>
      <point x="220" y="162"/>
      <point x="220" y="262" type="curve" smooth="yes"/>
      <point x="220" y="329"/>
      <point x="177" y="360"/>
      <point x="132" y="360" type="curve" smooth="yes"/>
      <point x="83" y="360"/>
      <point x="32" y="317"/>
      <point x="32" y="234" type="curve" smooth="yes"/>
      <point x="32" y="189"/>
      <point x="48" y="142"/>
      <point x="80" y="91" type="curve"/>
      <point x="117" y="127" type="line"/>
      <point x="91" y="168"/>
      <point x="81" y="207"/>
      <point x="81" y="244" type="curve" smooth="yes"/>
      <point x="81" y="290"/>
      <point x="105" y="313"/>
      <point x="129" y="313" type="curve" smooth="yes"/>
      <point x="150" y="313"/>
      <point x="170" y="299"/>
      <point x="170" y="257" type="curve" smooth="yes"/>
    </contour>
  </outline>
</glyph>
<glyph name="hbasaabove-syriac" format="2">
  <unicode hex="073A"/>
  <anchor x="160" y="0" name="_above"/>
  <anchor x="160" y="300" name="above"/>
  <outline>
    <contour>
      <point x="0" y="0" type="line"/>
      <point x="314" y="0" type="line"/>
      <point x="314" y="48" type="line"/>
      <point x="187" y="48" type="line"/>
      <point x="187" y="113" type="line"/>
      <point x="314" y="113" type="line"/>
      <point x="314" y="162" type="line"/>
      <point x="0" y="162" type="line"/>
      <point x="0" y="113" type="line"/>
      <point x="127" y="113" type="line"/>
      <point x="127" y="48" type="line"/>
      <point x="0" y="48" type="line"/>
    </contour>
  </outline>
</glyph>
<glyph name="esasaabove-syriac" format="2">
  <unicode hex="073D"/>
  <anchor x="240" y="0" name="_above"/>
  <anchor x="180" y="435" name="above"/>
  <outline>
    <contour>
      <point x="293" y="40" type="line"/>
      <point x="336" y="69" type="line"/>
      <point x="212" y="245" type="line"/>
      <point x="330" y="326" type="line"/>
      <point x="302" y="366" type="line"/>
      <point x="-2" y="153" type="line"/>
      <point x="26" y="113" type="line"/>
      <point x="172" y="216" type="line"/>
    </contour>
    <contour>
      <point x="150" y="0" type="curve" smooth="yes"/>
      <point x="190" y="0"/>
      <point x="224" y="34"/>
      <point x="224" y="75" type="curve" smooth="yes"/>
      <point x="224" y="114"/>
      <point x="189" y="149"/>
      <point x="150" y="149" type="curve" smooth="yes"/>
      <point x="110" y="149"/>
      <point x="75" y="115"/>
      <point x="75" y="75" type="curve" smooth="yes"/>
      <point x="75" y="34"/>
      <point x="110" y="0"/>
    </contour>
    <contour>
      <point x="150" y="38" type="curve" smooth="yes"/>
      <point x="125" y="38"/>
      <point x="112" y="50"/>
      <point x="112" y="75" type="curve" smooth="yes"/>
      <point x="112" y="100"/>
      <point x="125" y="112"/>
      <point x="150" y="112" type="curve" smooth="yes"/>
      <point x="175" y="112"/>
      <point x="187" y="100"/>
      <point x="187" y="75" type="curve" smooth="yes"/>
      <point x="187" y="50"/>
      <point x="175" y="38"/>
    </contour>
  </outline>
</glyph>
<glyph name="obliquelinebelow-syriac" format="2">
  <unicode hex="0748"/>
  <anchor x="-15" y="-60" name="_below"/>
  <anchor x="0" y="-480" name="below"/>
  <outline>
    <contour>
      <point x="252" y="-437" type="line"/>
      <point x="310" y="-372" type="line"/>
      <point x="-288" y="0" type="line"/>
      <point x="-346" y="-62" type="line"/>
    </contour>
  </outline>
</glyph>
<glyph name="daggerdbl" format="2">
  <advance width="710"/>
  <unicode hex="2021"/>
  <note>
daggerdbl
</note>
  <outline>
    <contour>
      <point x="583" y="388" type="curve" smooth="yes"/>
      <point x="535" y="388"/>
      <point x="461" y="354"/>
      <point x="402" y="340" type="curve"/>
      <point x="418" y="381"/>
      <point x="435" y="423"/>
      <point x="459" y="481" type="curve"/>
      <point x="435" y="542"/>
      <point x="418" y="583"/>
      <point x="402" y="624" type="curve"/>
      <point x="461" y="611"/>
      <point x="535" y="577"/>
      <point x="583" y="577" type="curve" smooth="yes"/>
      <point x="644" y="577"/>
      <point x="671" y="613"/>
      <point x="671" y="663" type="curve" smooth="yes"/>
      <point x="671" y="711"/>
      <point x="644" y="748"/>
      <point x="583" y="748" type="curve" smooth="yes"/>
      <point x="532" y="748"/>
      <point x="453" y="713"/>
      <point x="392" y="699" type="curve"/>
      <point x="405" y="763"/>
      <point x="440" y="841"/>
      <point x="440" y="891" type="curve" smooth="yes"/>
      <point x="440" y="953"/>
      <point x="403" y="980"/>
      <point x="354" y="980" type="curve" smooth="yes"/>
      <point x="306" y="980"/>
      <point x="268" y="953"/>
      <point x="268" y="891" type="curve" smooth="yes"/>
      <point x="268" y="841"/>
      <point x="303" y="763"/>
      <point x="317" y="699" type="curve"/>
      <point x="255" y="713"/>
      <point x="176" y="748"/>
      <point x="126" y="748" type="curve" smooth="yes"/>
      <point x="64" y="748"/>
      <point x="38" y="711"/>
      <point x="38" y="663" type="curve" smooth="yes"/>
      <point x="38" y="613"/>
      <point x="64" y="577"/>
      <point x="126" y="577" type="curve" smooth="yes"/>
      <point x="173" y="577"/>
      <point x="247" y="611"/>
      <point x="307" y="624" type="curve"/>
      <point x="292" y="583"/>
      <point x="273" y="542"/>
      <point x="250" y="481" type="curve"/>
      <point x="273" y="423"/>
      <point x="292" y="381"/>
      <point x="307" y="340" type="curve"/>
      <point x="247" y="354"/>
      <point x="173" y="388"/>
      <point x="126" y="388" type="curve" smooth="yes"/>
      <point x="64" y="388"/>
      <point x="38" y="349"/>
      <point x="38" y="302" type="curve" smooth="yes"/>
      <point x="38" y="253"/>
      <point x="64" y="217"/>
      <point x="126" y="217" type="curve" smooth="yes"/>
      <point x="176" y="217"/>
      <point x="255" y="252"/>
      <point x="317" y="264" type="curve"/>
      <point x="303" y="202"/>
      <point x="268" y="123"/>
      <point x="268" y="72" type="curve" smooth="yes"/>
      <point x="268" y="13"/>
      <point x="306" y="-13"/>
      <point x="354" y="-13" type="curve" smooth="yes"/>
      <point x="403" y="-13"/>
      <point x="440" y="13"/>
      <point x="440" y="72" type="curve" smooth="yes"/>
      <point x="440" y="123"/>
      <point x="405" y="202"/>
      <point x="392" y="264" type="curve"/>
      <point x="453" y="252"/>
      <point x="532" y="217"/>
      <point x="583" y="217" type="curve" smooth="yes"/>
      <point x="644" y="217"/>
      <point x="671" y="253"/>
      <point x="671" y="302" type="curve" smooth="yes"/>
      <point x="671" y="349"/>
      <point x="644" y="388"/>
    </contour>
  </outline>
</glyph>
<glyph name="guilsinglright" format="2">
  <advance width="577"/>
  <unicode hex="203A"/>
  <note>
guilsinglright
</note>
  <outline>
    <contour>
      <point x="91" y="543" type="line"/>
      <point x="319" y="259" type="line"/>
      <point x="319" y="367" type="line"/>
      <point x="91" y="82" type="line"/>
      <point x="144" y="24" type="line"/>
      <point x="473" y="277" type="line"/>
      <point x="473" y="350" type="line"/>
      <point x="144" y="602" type="line"/>
    </contour>
  </outline>
</glyph>
<glyph name="overline" format="2">
  <advance width="1229"/>
  <unicode hex="203E"/>
  <outline>
    <contour>
      <point x="26" y="1340" type="curve" smooth="yes"/>
      <point x="1203" y="1340" type="line" smooth="yes"/>
      <point x="1238" y="1340"/>
      <point x="1256" y="1354"/>
      <point x="1256" y="1382" type="curve" smooth="yes"/>
      <point x="1256" y="1411"/>
      <point x="1238" y="1425"/>
      <point x="1203" y="1425" type="curve" smooth="yes"/>
      <point x="26" y="1425" type="line" smooth="yes"/>
      <point x="-9" y="1425"/>
      <point x="-27" y="1411"/>
      <point x="-27" y="1383" type="curve" smooth="yes"/>
      <point x="-27" y="1354"/>
      <point x="-9" y="1340"/>
    </contour>
  </outline>
</glyph>
<glyph name="foursuperior" format="2">
  <advance width="561"/>
  <unicode hex="2074"/>
  <outline>
    <contour>
      <point x="446" y="358" type="line"/>
      <point x="446" y="655" type="line"/>
      <point x="446" y="719"/>
      <point x="448" y="784"/>
      <point x="453" y="828" type="curve"/>
      <point x="347" y="828" type="line"/>
      <point x="19" y="469" type="line"/>
      <point x="28" y="416" type="line"/>
      <point x="526" y="416" type="line"/>
      <point x="526" y="511" type="line"/>
      <point x="134" y="511" type="line"/>
      <point x="131" y="496" type="line"/>
      <point x="291" y="673" type="line"/>
      <point x="276" y="671" type="line"/>
      <point x="276" y="358" type="line"/>
      <point x="196" y="343" type="line"/>
      <point x="200" y="280" type="line"/>
      <point x="510" y="280" type="line"/>
      <point x="512" y="343" type="line"/>
    </contour>
  </outline>
</glyph>
<glyph name="Ohm" format="2">
  <advance width="1171"/>
  <unicode hex="2126"/>
  <outline>
    <contour>
      <point x="88" y="-8" type="line"/>
      <point x="128" y="-4"/>
      <point x="241" y="0"/>
      <point x="315" y="0" type="curve" smooth="yes"/>
      <point x="520" y="0" type="line"/>
      <point x="534" y="69" type="line"/>
      <point x="427" y="201"/>
      <point x="368" y="329"/>
      <point x="368" y="463" type="curve" smooth="yes"/>
      <point x="368" y="639"/>
      <point x="446" y="740"/>
      <point x="585" y="740" type="curve" smooth="yes"/>
      <point x="724" y="740"/>
      <point x="802" y="639"/>
      <point x="802" y="463" type="curve" smooth="yes"/>
      <point x="802" y="329"/>
      <point x="745" y="201"/>
      <point x="637" y="69" type="curve"/>
      <point x="650" y="0" type="line"/>
      <point x="856" y="0" type="line" smooth="yes"/>
      <point x="931" y="0"/>
      <point x="1043" y="-4"/>
      <point x="1084" y="-8" type="curve"/>
      <point x="1154" y="246" type="line"/>
      <point x="1064" y="266" type="line"/>
      <point x="982" y="106" type="line"/>
      <point x="736" y="106" type="line"/>
      <point x="773" y="84" type="line"/>
      <point x="925" y="172"/>
      <point x="1034" y="334"/>
      <point x="1034" y="488" type="curve" smooth="yes"/>
      <point x="1034" y="682"/>
      <point x="852" y="836"/>
      <point x="585" y="836" type="curve" smooth="yes"/>
      <point x="319" y="836"/>
      <point x="139" y="669"/>
      <point x="139" y="479" type="curve" smooth="yes"/>
      <point x="139" y="329"/>
      <point x="245" y="189"/>
      <point x="398" y="84" type="curve"/>
      <point x="435" y="106" type="line"/>
      <point x="188" y="106" type="line"/>
      <point x="106" y="266" type="line"/>
      <point x="17" y="246" type="line"/>
    </contour>
  </outline>
</glyph>
<glyph name="partialdiff" format="2">
  <advance width="770"/>
  <unicode hex="2202"/>
  <note>
partialdiff
</note>
  <outline>
    <contour>
      <point x="328" y="-13" type="curve" smooth="yes"/>
      <point x="561" y="-13"/>
      <point x="745" y="250"/>
      <point x="745" y="594" type="curve" smooth="yes"/>
      <point x="745" y="845"/>
      <point x="609" y="987"/>
      <point x="368" y="987" type="curve" smooth="yes"/>
      <point x="327" y="987"/>
      <point x="296" y="985"/>
      <point x="256" y="980" type="curve"/>
      <point x="256" y="904" type="line"/>
      <point x="300" y="904" type="line" smooth="yes"/>
      <point x="474" y="904"/>
      <point x="557" y="820"/>
      <point x="557" y="650" type="curve" smooth="yes"/>
      <point x="557" y="606"/>
      <point x="551" y="557"/>
      <point x="541" y="501" type="curve"/>
      <point x="560" y="498" type="line"/>
      <point x="544" y="582"/>
      <point x="478" y="633"/>
      <point x="385" y="633" type="curve" smooth="yes"/>
      <point x="203" y="633"/>
      <point x="55" y="462"/>
      <point x="55" y="252" type="curve" smooth="yes"/>
      <point x="55" y="87"/>
      <point x="161" y="-13"/>
    </contour>
    <contour>
      <point x="342" y="70" type="curve" smooth="yes"/>
      <point x="289" y="70"/>
      <point x="253" y="134"/>
      <point x="253" y="232" type="curve" smooth="yes"/>
      <point x="253" y="397"/>
      <point x="329" y="544"/>
      <point x="411" y="544" type="curve" smooth="yes"/>
      <point x="465" y="544"/>
      <point x="501" y="480"/>
      <point x="501" y="382" type="curve" smooth="yes"/>
      <point x="501" y="222"/>
      <point x="422" y="70"/>
    </contour>
  </outline>
</glyph>
<glyph name="minus" format="2">
  <advance width="757"/>
  <unicode hex="2212"/>
  <outline>
    <contour>
      <point x="725" y="308" type="line"/>
      <point x="725" y="430" type="line"/>
      <point x="32" y="430" type="line"/>
      <point x="32" y="308" type="line"/>
    </contour>
  </outline>
</glyph>
<glyph name="bulletoperator" format="2">
  <advance width="757"/>
  <unicode hex="2219"/>
  <note>
periodcentered
</note>
  <outline>
    <contour>
      <point x="378" y="221" type="curve" smooth="yes"/>
      <point x="454" y="221"/>
      <point x="514" y="278"/>
      <point x="514" y="352" type="curve" smooth="yes"/>
      <point x="514" y="427"/>
      <point x="454" y="488"/>
      <point x="378" y="488" type="curve" smooth="yes"/>
      <point x="305" y="488"/>
      <point x="243" y="427"/>
      <point x="243" y="352" type="curve" smooth="yes"/>
      <point x="243" y="278"/>
      <point x="305" y="221"/>
    </contour>
  </outline>
</glyph>
<glyph name="radical" format="2">
  <advance width="896"/>
  <unicode hex="221A"/>
  <note>
radical
</note>
  <outline>
    <contour>
      <point x="430" y="-131" type="line"/>
      <point x="500" y="-131" type="line"/>
      <point x="904" y="966" type="line"/>
      <point x="786" y="966" type="line"/>
      <point x="489" y="67" type="line"/>
      <point x="547" y="66" type="line"/>
      <point x="361" y="519" type="line" smooth="yes"/>
      <point x="344" y="563"/>
      <point x="333" y="588"/>
      <point x="324" y="621" type="curve"/>
      <point x="46" y="618" type="line"/>
      <point x="42" y="547" type="line"/>
      <point x="131" y="526" type="line"/>
    </contour>
  </outline>
</glyph>
<glyph name="infinity" format="2">
  <advance width="1122"/>
  <unicode hex="221E"/>
  <outline>
    <contour>
      <point x="47" y="409" type="curve" smooth="yes"/>
      <point x="47" y="228"/>
      <point x="161" y="110"/>
      <point x="315" y="110" type="curve" smooth="yes"/>
      <point x="423" y="110"/>
      <point x="532" y="193"/>
      <point x="571" y="337" type="curve"/>
      <point x="534" y="357" type="line"/>
      <point x="464" y="287"/>
      <point x="400" y="262"/>
      <point x="327" y="262" type="curve" smooth="yes"/>
      <point x="227" y="262"/>
      <point x="167" y="323"/>
      <point x="167" y="430" type="curve" smooth="yes"/>
      <point x="167" y="524"/>
      <point x="212" y="576"/>
      <point x="284" y="576" type="curve" smooth="yes"/>
      <point x="365" y="576"/>
      <point x="417" y="496"/>
      <point x="468" y="394" type="curve" smooth="yes"/>
      <point x="564" y="208"/>
      <point x="636" y="110"/>
      <point x="809" y="110" type="curve" smooth="yes"/>
      <point x="955" y="110"/>
      <point x="1075" y="238"/>
      <point x="1075" y="429" type="curve" smooth="yes"/>
      <point x="1075" y="610"/>
      <point x="961" y="729"/>
      <point x="807" y="729" type="curve" smooth="yes"/>
      <point x="699" y="729"/>
      <point x="590" y="645"/>
      <point x="552" y="501" type="curve"/>
      <point x="589" y="481" type="line"/>
      <point x="658" y="551"/>
      <point x="723" y="576"/>
      <point x="796" y="576" type="curve" smooth="yes"/>
      <point x="893" y="576"/>
      <point x="956" y="516"/>
      <point x="956" y="408" type="curve" smooth="yes"/>
      <point x="956" y="314"/>
      <point x="911" y="262"/>
      <point x="838" y="262" type="curve" smooth="yes"/>
      <point x="751" y="262"/>
      <point x="705" y="342"/>
      <point x="638" y="483" type="curve" smooth="yes"/>
      <point x="563" y="632"/>
      <point x="463" y="729"/>
      <point x="328" y="729" type="curve" smooth="yes"/>
      <point x="167" y="729"/>
      <point x="47" y="600"/>
    </contour>
  </outline>
</glyph>
<glyph name="integral" format="2">
  <advance width="506"/>
  <unicode hex="222B"/>
  <outline>
    <contour>
      <point x="105" y="-322" type="curve" smooth="yes"/>
      <point x="256" y="-322"/>
      <point x="375" y="-192"/>
      <point x="359" y="98" type="curve" smooth="yes"/>
      <point x="317" y="861" type="line" smooth="yes"/>
      <point x="310" y="965"/>
      <point x="320" y="1017"/>
      <point x="358" y="1040" type="curve"/>
      <point x="415" y="988" type="line" smooth="yes"/>
      <point x="442" y="962"/>
      <point x="466" y="950"/>
      <point x="498" y="950" type="curve" smooth="yes"/>
      <point x="539" y="950"/>
      <point x="565" y="973"/>
      <point x="565" y="1014" type="curve" smooth="yes"/>
      <point x="565" y="1076"/>
      <point x="496" y="1120"/>
      <point x="401" y="1120" type="curve" smooth="yes"/>
      <point x="236" y="1120"/>
      <point x="117" y="991"/>
      <point x="127" y="796" type="curve" smooth="yes"/>
      <point x="169" y="-8" type="line" smooth="yes"/>
      <point x="178" y="-168"/>
      <point x="172" y="-218"/>
      <point x="146" y="-243" type="curve"/>
      <point x="90" y="-191" type="line" smooth="yes"/>
      <point x="63" y="-166"/>
      <point x="39" y="-153"/>
      <point x="6" y="-153" type="curve" smooth="yes"/>
      <point x="-33" y="-153"/>
      <point x="-59" y="-175"/>
      <point x="-59" y="-216" type="curve" smooth="yes"/>
      <point x="-59" y="-278"/>
      <point x="9" y="-322"/>
    </contour>
  </outline>
</glyph>
<glyph name="lessequal" format="2">
  <advance width="757"/>
  <unicode hex="2264"/>
  <outline>
    <contour>
      <point x="74" y="349" type="line"/>
      <point x="683" y="162" type="line"/>
      <point x="683" y="291" type="line"/>
      <point x="109" y="463" type="line"/>
      <point x="109" y="374" type="line"/>
      <point x="683" y="546" type="line"/>
      <point x="683" y="677" type="line"/>
      <point x="74" y="485" type="line"/>
    </contour>
    <contour>
      <point x="683" y="122" type="line"/>
      <point x="74" y="122" type="line"/>
      <point x="74" y="0" type="line"/>
      <point x="683" y="0" type="line"/>
    </contour>
  </outline>
</glyph>
<glyph name="greaterequal" format="2">
  <advance width="757"/>
  <unicode hex="2265"/>
  <outline>
    <contour>
      <point x="683" y="349" type="line"/>
      <point x="683" y="485" type="line"/>
      <point x="74" y="677" type="line"/>
      <point x="74" y="546" type="line"/>
      <point x="649" y="374" type="line"/>
      <point x="649" y="463" type="line"/>
      <point x="74" y="291" type="line"/>
      <point x="74" y="162" type="line"/>
    </contour>
    <contour>
      <point x="683" y="122" type="line"/>
      <point x="74" y="122" type="line"/>
      <point x="74" y="0" type="line"/>
      <point x="683" y="0" type="line"/>
    </contour>
  </outline>
</glyph>
<glyph name="lozenge" format="2">
  <advance width="757"/>
  <unicode hex="25CA"/>
  <outline>
    <contour>
      <point x="698" y="348" type="line"/>
      <point x="442" y="945" type="line"/>
      <point x="314" y="945" type="line"/>
      <point x="61" y="348" type="line"/>
      <point x="314" y="-249" type="line"/>
      <point x="442" y="-249" type="line"/>
    </contour>
    <contour>
      <point x="558" y="348" type="line"/>
      <point x="377" y="-91" type="line"/>
      <point x="199" y="348" type="line"/>
      <point x="377" y="789" type="line"/>
    </contour>
  </outline>
</glyph>
<glyph name="fi" format="2">
  <advance width="847"/>
  <unicode hex="FB01"/>
  <note>
f_i
</note>
  <outline>
    <contour>
      <point x="29" y="0" type="line"/>
      <point x="396" y="0" type="line"/>
      <point x="400" y="64" type="line"/>
      <point x="313" y="89" type="line"/>
      <point x="310" y="118"/>
      <point x="305" y="171"/>
      <point x="305" y="332" type="curve" smooth="yes"/>
      <point x="305" y="615" type="line"/>
      <point x="305" y="678" type="line" smooth="yes"/>
      <point x="305" y="835"/>
      <point x="388" y="918"/>
      <point x="525" y="896" type="curve"/>
      <point x="433" y="944" type="line"/>
      <point x="586" y="810" type="line" smooth="yes"/>
      <point x="621" y="778"/>
      <point x="647" y="767"/>
      <point x="687" y="767" type="curve" smooth="yes"/>
      <point x="728" y="767"/>
      <point x="764" y="793"/>
      <point x="764" y="843" type="curve" smooth="yes"/>
      <point x="764" y="921"/>
      <point x="662" y="980"/>
      <point x="506" y="980" type="curve" smooth="yes"/>
      <point x="256" y="980"/>
      <point x="117" y="829"/>
      <point x="117" y="646" type="curve" smooth="yes"/>
      <point x="117" y="286" type="line" smooth="yes"/>
      <point x="117" y="158"/>
      <point x="114" y="101"/>
      <point x="113" y="89" type="curve"/>
      <point x="25" y="64" type="line"/>
    </contour>
    <contour>
      <point x="451" y="0" type="line"/>
      <point x="827" y="0" type="line"/>
      <point x="830" y="66" type="line"/>
      <point x="737" y="89" type="line"/>
      <point x="734" y="109"/>
      <point x="731" y="178"/>
      <point x="731" y="229" type="curve" smooth="yes"/>
      <point x="731" y="408" type="line" smooth="yes"/>
      <point x="731" y="490"/>
      <point x="733" y="549"/>
      <point x="739" y="623" type="curve"/>
      <point x="697" y="618"/>
      <point x="654" y="615"/>
      <point x="612" y="615" type="curve" smooth="yes"/>
      <point x="194" y="615" type="line"/>
      <point x="117" y="620" type="line"/>
      <point x="13" y="591" type="line"/>
      <point x="13" y="524" type="line"/>
      <point x="530" y="524" type="line"/>
      <point x="538" y="475"/>
      <point x="542" y="438"/>
      <point x="541" y="383" type="curve" smooth="yes"/>
      <point x="540" y="229" type="line" smooth="yes"/>
      <point x="541" y="195"/>
      <point x="537" y="119"/>
      <point x="533" y="89" type="curve"/>
      <point x="448" y="66" type="line"/>
    </contour>
  </outline>
</glyph>
<glyph name="_LeftTail" format="2">
  <advance width="603"/>
  <outline>
    <contour>
      <point x="503" y="195" type="curve"/>
      <point x="292" y="195" type="line" smooth="yes"/>
      <point x="142" y="195"/>
      <point x="150" y="352"/>
      <point x="135" y="352" type="curve" smooth="yes"/>
      <point x="126" y="352"/>
      <point x="100" y="294"/>
      <point x="100" y="224" type="curve" smooth="yes"/>
      <point x="100" y="124"/>
      <point x="135" y="0"/>
      <point x="252" y="0" type="curve" smooth="yes"/>
      <point x="362" y="0" type="line" smooth="yes"/>
      <point x="445" y="0"/>
      <point x="509" y="65"/>
    </contour>
  </outline>
</glyph>
<glyph name="_beth" format="2">
  <advance width="913"/>
  <outline>
    <contour>
      <point x="40" y="195" type="line"/>
      <point x="42" y="0" type="line"/>
      <point x="747" y="0" type="line" smooth="yes"/>
      <point x="792" y="0"/>
      <point x="797" y="83"/>
      <point x="797" y="256" type="curve" smooth="yes"/>
      <point x="797" y="387"/>
      <point x="788" y="645"/>
      <point x="761" y="645" type="curve" smooth="yes"/>
      <point x="745" y="645"/>
      <point x="743" y="600"/>
      <point x="548" y="600" type="curve" smooth="yes"/>
      <point x="437" y="600" type="line" smooth="yes"/>
      <point x="228" y="600"/>
      <point x="226" y="645"/>
      <point x="210" y="645" type="curve" smooth="yes"/>
      <point x="194" y="645"/>
      <point x="127" y="405"/>
      <point x="256" y="405" type="curve" smooth="yes"/>
      <point x="604" y="405" type="line"/>
      <point x="605" y="195" type="line"/>
    </contour>
  </outline>
</glyph>
<glyph name="_breve" format="2">
  <note>
uni0306
</note>
  <anchor x="420" y="618" name="_above"/>
  <anchor x="420" y="964" name="above"/>
  <outline>
    <contour>
      <point x="559" y="950" type="line"/>
      <point x="544" y="857"/>
      <point x="493" y="807"/>
      <point x="425" y="807" type="curve" smooth="yes"/>
      <point x="359" y="807"/>
      <point x="308" y="857"/>
      <point x="292" y="950" type="curve"/>
      <point x="198" y="920" type="line"/>
      <point x="205" y="780"/>
      <point x="297" y="688"/>
      <point x="422" y="688" type="curve" smooth="yes"/>
      <point x="547" y="688"/>
      <point x="635" y="780"/>
      <point x="642" y="920" type="curve"/>
    </contour>
  </outline>
</glyph>
<glyph name="_caron.case" format="2">
  <note>
uni030C.cap
</note>
  <anchor x="420" y="926" name="_above"/>
  <anchor x="420" y="1217" name="above"/>
  <outline>
    <contour>
      <point x="150" y="1153" type="line"/>
      <point x="343" y="1008" type="line"/>
      <point x="497" y="1008" type="line"/>
      <point x="691" y="1153" type="line"/>
      <point x="620" y="1197" type="line"/>
      <point x="373" y="1079" type="line"/>
      <point x="467" y="1079" type="line"/>
      <point x="221" y="1197" type="line"/>
    </contour>
  </outline>
</glyph>
<glyph name="_caron" format="2">
  <note>
uni030C
</note>
  <anchor x="420" y="618" name="_above"/>
  <anchor x="420" y="964" name="above"/>
  <outline>
    <contour>
      <point x="649" y="920" type="line"/>
      <point x="564" y="950" type="line"/>
      <point x="373" y="756" type="line"/>
      <point x="468" y="756" type="line"/>
      <point x="277" y="950" type="line"/>
      <point x="192" y="920" type="line"/>
      <point x="343" y="693" type="line"/>
      <point x="497" y="693" type="line"/>
    </contour>
  </outline>
</glyph>
<glyph name="_dieresis.case" format="2">
  <note>
uni0308.cap
</note>
  <anchor x="420" y="926" name="_above"/>
  <anchor x="420" y="1181" name="above"/>
  <outline>
    <contour>
      <point x="260" y="1005" type="curve" smooth="yes"/>
      <point x="322" y="1005"/>
      <point x="360" y="1050"/>
      <point x="360" y="1099" type="curve" smooth="yes"/>
      <point x="360" y="1148"/>
      <point x="322" y="1192"/>
      <point x="260" y="1192" type="curve" smooth="yes"/>
      <point x="195" y="1192"/>
      <point x="159" y="1148"/>
      <point x="159" y="1099" type="curve" smooth="yes"/>
      <point x="159" y="1050"/>
      <point x="195" y="1005"/>
    </contour>
    <contour>
      <point x="584" y="1005" type="curve" smooth="yes"/>
      <point x="646" y="1005"/>
      <point x="682" y="1050"/>
      <point x="682" y="1099" type="curve" smooth="yes"/>
      <point x="682" y="1148"/>
      <point x="646" y="1192"/>
      <point x="584" y="1192" type="curve" smooth="yes"/>
      <point x="518" y="1192"/>
      <point x="481" y="1148"/>
      <point x="481" y="1099" type="curve" smooth="yes"/>
      <point x="481" y="1050"/>
      <point x="518" y="1005"/>
    </contour>
  </outline>
</glyph>
<glyph name="_dot1" format="2">
  <anchor x="0" y="-157" name="_above"/>
  <anchor x="0" y="157" name="_below_unused"/>
  <anchor x="0" y="0" name="_center"/>
  <outline>
    <contour>
      <point x="0" y="100" type="curve"/>
      <point x="-100" y="0" type="line"/>
      <point x="-59" y="-28"/>
      <point x="-26" y="-61"/>
      <point x="0" y="-100" type="curve"/>
      <point x="100" y="0" type="line"/>
      <point x="73" y="40"/>
      <point x="41" y="72"/>
    </contour>
  </outline>
</glyph>
<glyph name="_dotaccent" format="2">
  <note>
uni0307
</note>
  <anchor x="420" y="618" name="_above"/>
  <anchor x="420" y="929" name="above"/>
  <outline>
    <contour>
      <point x="422" y="707" type="curve" smooth="yes"/>
      <point x="491" y="707"/>
      <point x="531" y="756"/>
      <point x="531" y="811" type="curve" smooth="yes"/>
      <point x="531" y="867"/>
      <point x="491" y="915"/>
      <point x="422" y="915" type="curve" smooth="yes"/>
      <point x="351" y="915"/>
      <point x="310" y="867"/>
      <point x="310" y="811" type="curve" smooth="yes"/>
      <point x="310" y="756"/>
      <point x="351" y="707"/>
    </contour>
  </outline>
</glyph>
<glyph name="_dotaccent.i" format="2">
  <note>
uni0307
</note>
  <anchor x="420" y="618" name="_above"/>
  <anchor x="420" y="929" name="above"/>
  <outline>
    <contour>
      <point x="422" y="736" type="curve" smooth="yes"/>
      <point x="500" y="736"/>
      <point x="544" y="791"/>
      <point x="544" y="853" type="curve" smooth="yes"/>
      <point x="544" y="915"/>
      <point x="500" y="970"/>
      <point x="422" y="970" type="curve" smooth="yes"/>
      <point x="344" y="970"/>
      <point x="297" y="915"/>
      <point x="297" y="853" type="curve" smooth="yes"/>
      <point x="297" y="791"/>
      <point x="344" y="736"/>
    </contour>
  </outline>
</glyph>
<glyph name="_ringabv" format="2">
  <note>
uni030A
</note>
  <anchor x="420" y="618" name="_above"/>
  <anchor x="420" y="928" name="above"/>
  <outline>
    <contour>
      <point x="422" y="679" type="curve" smooth="yes"/>
      <point x="513" y="679"/>
      <point x="579" y="743"/>
      <point x="579" y="828" type="curve" smooth="yes"/>
      <point x="579" y="914"/>
      <point x="513" y="977"/>
      <point x="422" y="977" type="curve" smooth="yes"/>
      <point x="331" y="977"/>
      <point x="262" y="912"/>
      <point x="262" y="828" type="curve" smooth="yes"/>
      <point x="262" y="743"/>
      <point x="331" y="679"/>
    </contour>
    <contour>
      <point x="423" y="744" type="curve" smooth="yes"/>
      <point x="374" y="744"/>
      <point x="340" y="780"/>
      <point x="340" y="830" type="curve" smooth="yes"/>
      <point x="340" y="878"/>
      <point x="374" y="914"/>
      <point x="423" y="914" type="curve" smooth="yes"/>
      <point x="470" y="914"/>
      <point x="504" y="879"/>
      <point x="504" y="830" type="curve" smooth="yes"/>
      <point x="504" y="779"/>
      <point x="470" y="744"/>
    </contour>
  </outline>
</glyph>
<glyph name="_shin" format="2">
  <advance width="995"/>
  <outline>
    <contour>
      <point x="577" y="435" type="curve"/>
      <point x="424" y="435" type="line"/>
      <point x="424" y="195" type="line"/>
      <point x="100" y="195" type="line"/>
      <point x="100" y="0" type="line"/>
      <point x="426" y="0" type="line" smooth="yes"/>
      <point x="484" y="0"/>
      <point x="537" y="31"/>
      <point x="559" y="108" type="curve"/>
      <point x="508" y="94" type="line"/>
      <point x="542" y="31"/>
      <point x="591" y="0"/>
      <point x="665" y="0" type="curve" smooth="yes"/>
      <point x="713" y="0"/>
      <point x="743" y="0"/>
      <point x="842" y="0" type="curve" smooth="yes"/>
      <point x="882" y="0"/>
      <point x="905" y="75"/>
      <point x="905" y="195" type="curve"/>
      <point x="742" y="195" type="line" smooth="yes"/>
      <point x="615" y="195"/>
      <point x="577" y="254"/>
    </contour>
    <contour>
      <point x="665" y="405" type="line" smooth="yes"/>
      <point x="794" y="405"/>
      <point x="777" y="645"/>
      <point x="761" y="645" type="curve" smooth="yes"/>
      <point x="745" y="645"/>
      <point x="743" y="600"/>
      <point x="568" y="600" type="curve" smooth="yes"/>
      <point x="457" y="600" type="line" smooth="yes"/>
      <point x="248" y="600"/>
      <point x="246" y="645"/>
      <point x="230" y="645" type="curve" smooth="yes"/>
      <point x="214" y="645"/>
      <point x="167" y="405"/>
      <point x="296" y="405" type="curve" smooth="yes"/>
    </contour>
  </outline>
</glyph>
<glyph name="_slashlong.case" format="2">
  <anchor x="420" y="412" name="_center"/>
  <outline>
    <contour>
      <point x="160" y="-102" type="line"/>
      <point x="770" y="875" type="line"/>
      <point x="681" y="928" type="line"/>
      <point x="71" y="-49" type="line"/>
    </contour>
  </outline>
</glyph>
<glyph name="_slashlong" format="2">
  <anchor x="420" y="309" name="_center"/>
  <outline>
    <contour>
      <point x="203" y="-96" type="line"/>
      <point x="706" y="674" type="line"/>
      <point x="638" y="715" type="line"/>
      <point x="134" y="-56" type="line"/>
    </contour>
  </outline>
</glyph>
<glyph name="_strokeshortcomb.case" format="2">
  <advance width="525"/>
  <anchor x="362" y="569" name="_stroke"/>
  <outline>
    <contour>
      <point x="97" y="522" type="line"/>
      <point x="626" y="522" type="line"/>
      <point x="626" y="617" type="line"/>
      <point x="97" y="617" type="line"/>
    </contour>
  </outline>
</glyph>
<glyph name="_tilde" format="2">
  <note>
tildecomb
</note>
  <anchor x="420" y="618" name="_above"/>
  <anchor x="420" y="964" name="above"/>
  <outline>
    <contour>
      <point x="622" y="911" type="line"/>
      <point x="596" y="866"/>
      <point x="571" y="844"/>
      <point x="535" y="844" type="curve" smooth="yes"/>
      <point x="480" y="844"/>
      <point x="391" y="913"/>
      <point x="321" y="913" type="curve" smooth="yes"/>
      <point x="245" y="913"/>
      <point x="186" y="851"/>
      <point x="157" y="749" type="curve"/>
      <point x="219" y="712" type="line"/>
      <point x="245" y="757"/>
      <point x="270" y="779"/>
      <point x="304" y="779" type="curve" smooth="yes"/>
      <point x="360" y="779"/>
      <point x="450" y="710"/>
      <point x="519" y="710" type="curve" smooth="yes"/>
      <point x="595" y="710"/>
      <point x="655" y="772"/>
      <point x="684" y="874" type="curve"/>
    </contour>
  </outline>
</glyph>
<glyph name="alaph-syriac.ccmp" format="2">
  <advance width="457"/>
  <outline>
    <contour>
      <point x="277" y="195" type="line"/>
      <point x="129" y="0" type="line"/>
      <point x="557" y="0" type="line"/>
      <point x="557" y="195" type="line"/>
    </contour>
    <contour>
      <point x="88" y="-85" type="curve" smooth="yes"/>
      <point x="390" y="314"/>
      <point x="428" y="506"/>
      <point x="428" y="708" type="curve" smooth="yes"/>
      <point x="428" y="777"/>
      <point x="403" y="892"/>
      <point x="315" y="892" type="curve" smooth="yes"/>
      <point x="227" y="892"/>
      <point x="165" y="803"/>
      <point x="165" y="723" type="curve" smooth="yes"/>
      <point x="165" y="658"/>
      <point x="206" y="600"/>
      <point x="306" y="600" type="curve" smooth="yes"/>
      <point x="325" y="600"/>
      <point x="346" y="602"/>
      <point x="369" y="607" type="curve"/>
      <point x="346" y="650" type="line"/>
      <point x="347" y="642"/>
      <point x="347" y="633"/>
      <point x="347" y="624" type="curve" smooth="yes"/>
      <point x="347" y="415"/>
      <point x="182" y="139"/>
      <point x="59" y="-58" type="curve" smooth="yes"/>
      <point x="54" y="-67"/>
      <point x="50" y="-73"/>
      <point x="50" y="-80" type="curve" smooth="yes"/>
      <point x="50" y="-90"/>
      <point x="58" y="-97"/>
      <point x="67" y="-97" type="curve" smooth="yes"/>
      <point x="74" y="-97"/>
      <point x="81" y="-94"/>
    </contour>
  </outline>
</glyph>
<glyph name="dalathrishDotless-syriac.fina" format="2">
  <advance width="652"/>
  <anchor x="282" y="720" name="above"/>
  <anchor x="50" y="720" name="aboveleft"/>
  <anchor x="282" y="-150" name="below"/>
  <anchor x="50" y="-150" name="belowleft"/>
  <outline>
    <component base="dalathrishDotless-syriac"/>
    <contour>
      <point x="532" y="195" type="line"/>
      <point x="532" y="65"/>
      <point x="566" y="0"/>
      <point x="651" y="0" type="curve" smooth="yes"/>
      <point x="672" y="0" type="line"/>
      <point x="672" y="195" type="line"/>
    </contour>
  </outline>
</glyph>
<glyph name="eight.latn" format="2">
  <advance width="737"/>
  <outline>
    <contour>
      <point x="359" y="-12" type="curve" smooth="yes"/>
      <point x="571" y="-12"/>
      <point x="712" y="84"/>
      <point x="712" y="238" type="curve" smooth="yes"/>
      <point x="712" y="507"/>
      <point x="252" y="450"/>
      <point x="252" y="646" type="curve" smooth="yes"/>
      <point x="252" y="708"/>
      <point x="299" y="745"/>
      <point x="371" y="745" type="curve" smooth="yes"/>
      <point x="449" y="745"/>
      <point x="497" y="695"/>
      <point x="497" y="606" type="curve" smooth="yes"/>
      <point x="497" y="540"/>
      <point x="480" y="494"/>
      <point x="434" y="428" type="curve"/>
      <point x="448" y="412" type="line"/>
      <point x="595" y="440"/>
      <point x="678" y="514"/>
      <point x="678" y="620" type="curve" smooth="yes"/>
      <point x="678" y="746"/>
      <point x="575" y="836"/>
      <point x="388" y="836" type="curve" smooth="yes"/>
      <point x="189" y="836"/>
      <point x="59" y="737"/>
      <point x="59" y="596" type="curve" smooth="yes"/>
      <point x="59" y="306"/>
      <point x="516" y="365"/>
      <point x="516" y="182" type="curve" smooth="yes"/>
      <point x="516" y="125"/>
      <point x="464" y="87"/>
      <point x="381" y="87" type="curve" smooth="yes"/>
      <point x="287" y="87"/>
      <point x="221" y="135"/>
      <point x="221" y="222" type="curve" smooth="yes"/>
      <point x="221" y="275"/>
      <point x="242" y="323"/>
      <point x="294" y="384" type="curve"/>
      <point x="272" y="416" type="line"/>
      <point x="123" y="387"/>
      <point x="26" y="315"/>
      <point x="26" y="208" type="curve" smooth="yes"/>
      <point x="26" y="80"/>
      <point x="156" y="-12"/>
    </contour>
  </outline>
</glyph>
<glyph name="gamal-syriac.init" format="2">
  <advance width="886"/>
  <anchor x="706" y="795" name="above"/>
  <anchor x="50" y="795" name="aboveleft"/>
  <anchor x="465" y="-150" name="below"/>
  <anchor x="50" y="-150" name="belowleft"/>
  <outline>
    <component base="_LrgSquareDot" xOffset="739" yOffset="-191"/>
    <contour>
      <point x="814" y="0" type="line"/>
      <point x="666" y="195" type="line"/>
      <point x="-20" y="195" type="line"/>
      <point x="-20" y="0" type="line"/>
    </contour>
    <contour>
      <point x="966" y="-314" type="curve"/>
      <point x="999" y="-288" type="line"/>
      <point x="675" y="317"/>
      <point x="495" y="699"/>
      <point x="455" y="793" type="curve" smooth="yes"/>
      <point x="416" y="882"/>
      <point x="406" y="961"/>
      <point x="406" y="981" type="curve" smooth="yes"/>
      <point x="406" y="988"/>
      <point x="405" y="992"/>
      <point x="402" y="992" type="curve" smooth="yes"/>
      <point x="384" y="992"/>
      <point x="238" y="811"/>
      <point x="238" y="733" type="curve" smooth="yes"/>
      <point x="238" y="689"/>
      <point x="468" y="365"/>
      <point x="618" y="117" type="curve"/>
      <point x="636" y="93"/>
      <point x="684" y="68"/>
      <point x="702" y="44" type="curve"/>
      <point x="810" y="-103"/>
      <point x="887" y="-207"/>
    </contour>
  </outline>
</glyph>
<glyph name="he-syriac.fina" format="2">
  <advance width="867"/>
  <anchor x="450" y="765" name="above"/>
  <anchor x="50" y="765" name="aboveleft"/>
  <anchor x="450" y="-150" name="below"/>
  <anchor x="50" y="-150" name="belowleft"/>
  <outline>
    <component base="he-syriac"/>
    <contour>
      <point x="784" y="195" type="line"/>
      <point x="787" y="0" type="line"/>
      <point x="887" y="0" type="line"/>
      <point x="887" y="195" type="line"/>
    </contour>
  </outline>
</glyph>
<glyph name="kaph-syriac.cv15" format="2">
  <advance width="845"/>
  <anchor x="357" y="765" name="above"/>
  <anchor x="50" y="765" name="aboveleft"/>
  <anchor x="402" y="-210" name="below"/>
  <anchor x="50" y="-210" name="belowleft"/>
  <outline>
    <contour>
      <point x="173" y="405" type="line"/>
      <point x="198" y="445" type="line"/>
      <point x="373" y="105" type="line"/>
      <point x="330" y="127" type="line"/>
      <point x="400" y="232"/>
      <point x="478" y="284"/>
      <point x="565" y="284" type="curve" smooth="yes"/>
      <point x="718" y="284"/>
      <point x="795" y="194"/>
      <point x="795" y="15" type="curve" smooth="yes"/>
      <point x="795" y="-171"/>
      <point x="670" y="-429"/>
      <point x="497" y="-669" type="curve" smooth="yes"/>
      <point x="489" y="-680"/>
      <point x="479" y="-685"/>
      <point x="471" y="-685" type="curve" smooth="yes"/>
      <point x="462" y="-685"/>
      <point x="454" y="-678"/>
      <point x="454" y="-667" type="curve" smooth="yes"/>
      <point x="454" y="-661"/>
      <point x="456" y="-655"/>
      <point x="461" y="-647" type="curve" smooth="yes"/>
      <point x="515" y="-562"/>
      <point x="665" y="-336"/>
      <point x="665" y="-122" type="curve" smooth="yes"/>
      <point x="665" y="29"/>
      <point x="596" y="96"/>
      <point x="513" y="96" type="curve" smooth="yes"/>
      <point x="350" y="96"/>
      <point x="279" y="-86"/>
      <point x="268" y="-86" type="curve" smooth="yes"/>
      <point x="259" y="-86"/>
      <point x="50" y="321"/>
      <point x="50" y="327" type="curve" smooth="yes"/>
      <point x="50" y="342"/>
      <point x="143" y="449"/>
      <point x="215" y="580" type="curve" smooth="yes"/>
      <point x="225" y="598"/>
      <point x="248" y="600"/>
      <point x="284" y="600" type="curve" smooth="yes"/>
      <point x="355" y="600" type="line" smooth="yes"/>
      <point x="564" y="600"/>
      <point x="566" y="645"/>
      <point x="582" y="645" type="curve" smooth="yes"/>
      <point x="591" y="645"/>
      <point x="614" y="577"/>
      <point x="614" y="513" type="curve" smooth="yes"/>
      <point x="614" y="457"/>
      <point x="596" y="405"/>
      <point x="536" y="405" type="curve" smooth="yes"/>
    </contour>
  </outline>
</glyph>
<glyph name="kaph-syriac.init" format="2">
  <advance width="875"/>
  <anchor x="425" y="750" name="above"/>
  <anchor x="50" y="750" name="aboveleft"/>
  <anchor x="425" y="-150" name="below"/>
  <anchor x="50" y="-150" name="belowleft"/>
  <outline>
    <contour>
      <point x="-20" y="0" type="line"/>
      <point x="704" y="0" type="line" smooth="yes"/>
      <point x="793" y="0"/>
      <point x="825" y="122"/>
      <point x="825" y="181" type="curve" smooth="yes"/>
      <point x="825" y="380"/>
      <point x="547" y="612"/>
      <point x="425" y="612" type="curve" smooth="yes"/>
      <point x="255" y="612"/>
      <point x="218" y="301"/>
      <point x="238" y="301" type="curve" smooth="yes"/>
      <point x="246" y="301"/>
      <point x="313" y="401"/>
      <point x="398" y="401" type="curve" smooth="yes"/>
      <point x="494" y="401"/>
      <point x="639" y="244"/>
      <point x="623" y="176" type="curve"/>
      <point x="669" y="195" type="line"/>
      <point x="-20" y="195" type="line"/>
    </contour>
  </outline>
</glyph>
<glyph name="kashida-ar.quarter" format="2">
  <advance width="90"/>
  <anchor x="45" y="405" name="above"/>
  <anchor x="45" y="-150" name="below"/>
  <outline>
    <contour>
      <point x="0" y="0" type="line"/>
      <point x="90" y="0" type="line"/>
      <point x="90" y="195" type="line"/>
      <point x="0" y="195" type="line"/>
    </contour>
  </outline>
</glyph>
<glyph name="mim-syriac.cv17" format="2">
  <advance width="908"/>
  <anchor x="537" y="735" name="above"/>
  <anchor x="50" y="735" name="aboveleft"/>
  <anchor x="552" y="-150" name="below"/>
  <anchor x="50" y="-150" name="belowleft"/>
  <outline>
    <contour>
      <point x="133" y="-134" type="curve" smooth="yes"/>
      <point x="346" y="149" type="line"/>
      <point x="493" y="419" type="line"/>
      <point x="403" y="419" type="line"/>
      <point x="99" y="-112" type="line" smooth="yes"/>
      <point x="93" y="-123"/>
      <point x="90" y="-132"/>
      <point x="90" y="-139" type="curve" smooth="yes"/>
      <point x="90" y="-149"/>
      <point x="95" y="-154"/>
      <point x="103" y="-154" type="curve" smooth="yes"/>
      <point x="111" y="-154"/>
      <point x="122" y="-148"/>
    </contour>
    <contour>
      <point x="803" y="0" type="line" smooth="yes"/>
      <point x="834" y="0"/>
      <point x="858" y="98"/>
      <point x="858" y="149" type="curve" smooth="yes"/>
      <point x="858" y="161"/>
      <point x="857" y="170"/>
      <point x="854" y="175" type="curve" smooth="yes"/>
      <point x="844" y="193"/>
      <point x="833" y="293"/>
      <point x="833" y="384" type="curve" smooth="yes"/>
      <point x="834" y="449"/>
      <point x="842" y="534"/>
      <point x="842" y="587" type="curve" smooth="yes"/>
      <point x="842" y="628"/>
      <point x="838" y="645"/>
      <point x="829" y="645" type="curve" smooth="yes"/>
      <point x="813" y="645"/>
      <point x="811" y="600"/>
      <point x="625" y="600" type="curve" smooth="yes"/>
      <point x="299" y="600" type="line" smooth="yes"/>
      <point x="90" y="600"/>
      <point x="88" y="645"/>
      <point x="72" y="645" type="curve" smooth="yes"/>
      <point x="65" y="645"/>
      <point x="50" y="593"/>
      <point x="50" y="537" type="curve" smooth="yes"/>
      <point x="50" y="474"/>
      <point x="69" y="405"/>
      <point x="138" y="405" type="curve" smooth="yes"/>
      <point x="728" y="405" type="line"/>
      <point x="683" y="450" type="line"/>
      <point x="683" y="150" type="line"/>
      <point x="728" y="195" type="line"/>
      <point x="335" y="195" type="line"/>
      <point x="201" y="0" type="line"/>
    </contour>
  </outline>
</glyph>
<glyph name="nun-syriac.cv18" format="2">
  <advance width="662"/>
  <anchor x="228" y="450" name="above"/>
  <anchor x="50" y="450" name="aboveleft"/>
  <anchor x="213" y="-150" name="below"/>
  <anchor x="50" y="-150" name="belowleft"/>
  <outline>
    <contour>
      <point x="795" y="-546"/>
      <point x="827" y="-522"/>
      <point x="804" y="-490" type="curve" smooth="yes"/>
      <point x="634" y="-253"/>
      <point x="221" y="274"/>
      <point x="178" y="274" type="curve" smooth="yes"/>
      <point x="158" y="274"/>
      <point x="50" y="196"/>
      <point x="50" y="175" type="curve" smooth="yes"/>
      <point x="50" y="140"/>
      <point x="178" y="-15"/>
      <point x="202" y="-15" type="curve" smooth="yes"/>
      <point x="221" y="-15"/>
      <point x="286" y="44"/>
      <point x="317" y="64" type="curve"/>
      <point x="236" y="85" type="line"/>
      <point x="394" y="-65"/>
      <point x="593" y="-296"/>
      <point x="771" y="-516" type="curve" smooth="yes"/>
    </contour>
  </outline>
</glyph>
<glyph name="nun-syriac.fina" format="2">
  <advance width="459"/>
  <anchor x="225" y="465" name="above"/>
  <anchor x="50" y="465" name="aboveleft"/>
  <anchor x="240" y="-615" name="below"/>
  <anchor x="50" y="-615" name="belowleft"/>
  <outline>
    <contour>
      <point x="370" y="-522"/>
      <point x="384" y="-528"/>
      <point x="395" y="-528" type="curve" smooth="yes"/>
      <point x="403" y="-528"/>
      <point x="409" y="-524"/>
      <point x="409" y="-516" type="curve" smooth="yes"/>
      <point x="409" y="-509"/>
      <point x="404" y="-500"/>
      <point x="391" y="-485" type="curve" smooth="yes"/>
      <point x="230" y="-304"/>
      <point x="192" y="-106"/>
      <point x="191" y="26" type="curve"/>
      <point x="149" y="0" type="line"/>
      <point x="479" y="0" type="line"/>
      <point x="479" y="195" type="line"/>
      <point x="285" y="195" type="line" smooth="yes"/>
      <point x="166" y="195"/>
      <point x="123" y="279"/>
      <point x="106" y="358" type="curve"/>
      <point x="93" y="358"/>
      <point x="50" y="338"/>
      <point x="50" y="316" type="curve" smooth="yes"/>
      <point x="50" y="-66"/>
      <point x="147" y="-320"/>
      <point x="357" y="-510" type="curve" smooth="yes"/>
    </contour>
  </outline>
</glyph>
<glyph name="partialdiff.rtl" format="2">
  <advance width="770"/>
  <note>
partialdiff
</note>
  <outline>
    <contour>
      <point x="472" y="-13" type="curve" smooth="yes"/>
      <point x="639" y="-13"/>
      <point x="745" y="87"/>
      <point x="745" y="252" type="curve" smooth="yes"/>
      <point x="745" y="462"/>
      <point x="597" y="633"/>
      <point x="415" y="633" type="curve" smooth="yes"/>
      <point x="322" y="633"/>
      <point x="257" y="582"/>
      <point x="240" y="498" type="curve"/>
      <point x="259" y="501" type="line"/>
      <point x="249" y="557"/>
      <point x="243" y="606"/>
      <point x="243" y="650" type="curve" smooth="yes"/>
      <point x="243" y="820"/>
      <point x="326" y="904"/>
      <point x="500" y="904" type="curve" smooth="yes"/>
      <point x="544" y="904" type="line"/>
      <point x="544" y="980" type="line"/>
      <point x="504" y="985"/>
      <point x="473" y="987"/>
      <point x="432" y="987" type="curve" smooth="yes"/>
      <point x="191" y="987"/>
      <point x="55" y="845"/>
      <point x="55" y="594" type="curve" smooth="yes"/>
      <point x="55" y="250"/>
      <point x="239" y="-13"/>
    </contour>
    <contour>
      <point x="458" y="70" type="curve" smooth="yes"/>
      <point x="378" y="70"/>
      <point x="299" y="222"/>
      <point x="299" y="382" type="curve" smooth="yes"/>
      <point x="299" y="480"/>
      <point x="335" y="544"/>
      <point x="389" y="544" type="curve" smooth="yes"/>
      <point x="472" y="544"/>
      <point x="547" y="397"/>
      <point x="547" y="232" type="curve" smooth="yes"/>
      <point x="547" y="134"/>
      <point x="511" y="70"/>
    </contour>
  </outline>
</glyph>
<glyph name="pe-syriac.init" format="2">
  <advance width="862"/>
  <anchor x="460" y="975" name="above"/>
  <anchor x="50" y="975" name="aboveleft"/>
  <anchor x="490" y="-150" name="below"/>
  <anchor x="50" y="-150" name="belowleft"/>
  <outline>
    <contour>
      <point x="808" y="185" type="curve"/>
      <point x="780" y="268"/>
      <point x="717" y="515"/>
      <point x="693" y="624" type="curve" smooth="yes"/>
      <point x="671" y="725"/>
      <point x="666" y="782"/>
      <point x="666" y="823" type="curve" smooth="yes"/>
      <point x="666" y="863"/>
      <point x="673" y="884"/>
      <point x="673" y="894" type="curve" smooth="yes"/>
      <point x="673" y="898"/>
      <point x="672" y="901"/>
      <point x="669" y="902" type="curve" smooth="yes"/>
      <point x="661" y="906"/>
      <point x="594" y="871"/>
      <point x="462" y="833" type="curve" smooth="yes"/>
      <point x="278" y="780"/>
      <point x="176" y="700"/>
      <point x="176" y="552" type="curve" smooth="yes"/>
      <point x="176" y="425"/>
      <point x="279" y="318"/>
      <point x="474" y="318" type="curve" smooth="yes"/>
      <point x="522" y="318"/>
      <point x="574" y="319"/>
      <point x="625" y="320" type="curve"/>
      <point x="590" y="485" type="line"/>
      <point x="556" y="485"/>
      <point x="516" y="485"/>
      <point x="480" y="485" type="curve" smooth="yes"/>
      <point x="405" y="485"/>
      <point x="369" y="528"/>
      <point x="369" y="572" type="curve" smooth="yes"/>
      <point x="369" y="619"/>
      <point x="410" y="669"/>
      <point x="477" y="669" type="curve" smooth="yes"/>
      <point x="506" y="669"/>
      <point x="526" y="668"/>
      <point x="544" y="665" type="curve"/>
      <point x="478" y="734" type="line"/>
      <point x="622" y="152" type="line"/>
      <point x="661" y="195" type="line"/>
      <point x="-20" y="195" type="line"/>
      <point x="-20" y="0" type="line"/>
      <point x="757" y="0" type="line" smooth="yes"/>
      <point x="788" y="0"/>
      <point x="812" y="98"/>
      <point x="812" y="149" type="curve" smooth="yes"/>
      <point x="812" y="161"/>
      <point x="811" y="170"/>
    </contour>
  </outline>
</glyph>
<glyph name="qaph-syriac.fina" format="2">
  <advance width="1026"/>
  <anchor x="655" y="780" name="above"/>
  <anchor x="50" y="780" name="aboveleft"/>
  <anchor x="685" y="-150" name="below"/>
  <anchor x="50" y="-150" name="belowleft"/>
  <outline>
    <component base="_qaph" xOffset="252"/>
    <component base="_LeftTail" xOffset="-50"/>
    <contour>
      <point x="906" y="195" type="line"/>
      <point x="906" y="65"/>
      <point x="940" y="0"/>
      <point x="1025" y="0" type="curve" smooth="yes"/>
      <point x="1046" y="0" type="line"/>
      <point x="1046" y="195" type="line"/>
    </contour>
  </outline>
</glyph>
<glyph name="semkath-syriac.fina" format="2">
  <advance width="1206"/>
  <anchor x="818" y="780" name="above"/>
  <anchor x="50" y="780" name="aboveleft"/>
  <anchor x="758" y="-150" name="below"/>
  <anchor x="50" y="-150" name="belowleft"/>
  <outline>
    <component base="semkath-syriac"/>
    <contour>
      <point x="986" y="195" type="line"/>
      <point x="986" y="65"/>
      <point x="1020" y="0"/>
      <point x="1105" y="0" type="curve" smooth="yes"/>
      <point x="1226" y="0" type="line"/>
      <point x="1226" y="195" type="line"/>
    </contour>
  </outline>
</glyph>
<glyph name="taw_alaph-syriac.fina.triangle" format="2">
  <advance width="854"/>
  <anchor x="605" y="915" name="above_1"/>
  <anchor x="305" y="975" name="above_2"/>
  <anchor x="720" y="-210" name="below_1"/>
  <anchor x="225" y="-210" name="below_2"/>
  <outline>
    <component base="taw_alaph-syriac.triangle"/>
    <contour>
      <point x="771" y="195" type="line"/>
      <point x="645" y="101" type="line"/>
      <point x="666" y="70"/>
      <point x="719" y="0"/>
      <point x="724" y="0" type="curve" smooth="yes"/>
      <point x="874" y="0" type="line"/>
      <point x="874" y="195" type="line"/>
    </contour>
  </outline>
</glyph>
<glyph name="taw_alaph-syriac.fina.twined" format="2">
  <advance width="1164"/>
  <anchor x="883" y="825" name="above_1"/>
  <anchor x="448" y="990" name="above_2"/>
  <anchor x="943" y="-150" name="below_1"/>
  <anchor x="523" y="-150" name="below_2"/>
  <outline>
    <component base="taw_alaph-syriac.twined"/>
    <contour>
      <point x="1068" y="195" type="line"/>
      <point x="1068" y="0" type="line"/>
      <point x="1184" y="0" type="line"/>
      <point x="1184" y="195" type="line"/>
    </contour>
  </outline>
</glyph>
<glyph name="taw_alaph-syriac.triangle" format="2">
  <advance width="851"/>
  <anchor x="605" y="915" name="above_1"/>
  <anchor x="305" y="975" name="above_2"/>
  <anchor x="665" y="-210" name="below_1"/>
  <anchor x="170" y="-210" name="below_2"/>
  <outline>
    <contour>
      <point x="88" y="-85" type="curve" smooth="yes"/>
      <point x="390" y="314"/>
      <point x="428" y="506"/>
      <point x="428" y="708" type="curve" smooth="yes"/>
      <point x="428" y="777"/>
      <point x="403" y="892"/>
      <point x="315" y="892" type="curve" smooth="yes"/>
      <point x="227" y="892"/>
      <point x="165" y="803"/>
      <point x="165" y="723" type="curve" smooth="yes"/>
      <point x="165" y="658"/>
      <point x="206" y="600"/>
      <point x="306" y="600" type="curve" smooth="yes"/>
      <point x="325" y="600"/>
      <point x="346" y="602"/>
      <point x="369" y="607" type="curve"/>
      <point x="346" y="650" type="line"/>
      <point x="347" y="642"/>
      <point x="347" y="633"/>
      <point x="347" y="624" type="curve" smooth="yes"/>
      <point x="347" y="415"/>
      <point x="182" y="139"/>
      <point x="59" y="-58" type="curve" smooth="yes"/>
      <point x="54" y="-67"/>
      <point x="50" y="-73"/>
      <point x="50" y="-80" type="curve" smooth="yes"/>
      <point x="50" y="-90"/>
      <point x="58" y="-97"/>
      <point x="67" y="-97" type="curve" smooth="yes"/>
      <point x="74" y="-97"/>
      <point x="81" y="-94"/>
    </contour>
    <contour>
      <point x="691" y="64" type="curve"/>
      <point x="717" y="99" type="line"/>
      <point x="656" y="130" type="line"/>
      <point x="597" y="49"/>
      <point x="555" y="-7"/>
      <point x="538" y="-34" type="curve"/>
      <point x="593" y="-52" type="line"/>
      <point x="302" y="304" type="line"/>
      <point x="218" y="121" type="line"/>
      <point x="474" y="-173" type="line" smooth="yes"/>
      <point x="483" y="-184"/>
      <point x="488" y="-189"/>
      <point x="492" y="-189" type="curve" smooth="yes"/>
      <point x="511" y="-189"/>
      <point x="634" y="-15"/>
    </contour>
    <contour>
      <point x="794" y="181" type="curve"/>
      <point x="771" y="213"/>
      <point x="731" y="264"/>
      <point x="704" y="302" type="curve" smooth="yes"/>
      <point x="599" y="447"/>
      <point x="578" y="487"/>
      <point x="559" y="568" type="curve" smooth="yes"/>
      <point x="557" y="572"/>
      <point x="556" y="576"/>
      <point x="554" y="576" type="curve" smooth="yes"/>
      <point x="541" y="574"/>
      <point x="443" y="424"/>
      <point x="452" y="369" type="curve" smooth="yes"/>
      <point x="454" y="355"/>
      <point x="565" y="189"/>
      <point x="724" y="0" type="curve"/>
      <point x="745" y="0"/>
      <point x="801" y="96"/>
      <point x="801" y="154" type="curve" smooth="yes"/>
      <point x="801" y="166"/>
      <point x="799" y="175"/>
    </contour>
  </outline>
</glyph>
<glyph name="taw_alaph-syriac.twined" format="2">
  <advance width="1140"/>
  <anchor x="883" y="825" name="above_1"/>
  <anchor x="448" y="990" name="above_2"/>
  <anchor x="943" y="-150" name="below_1"/>
  <anchor x="523" y="-150" name="below_2"/>
  <outline>
    <contour>
      <point x="877" y="195" type="curve"/>
      <point x="402" y="195" type="line"/>
      <point x="278" y="0" type="line"/>
      <point x="868" y="0" type="line" smooth="yes"/>
      <point x="879" y="0"/>
      <point x="879" y="144"/>
    </contour>
    <contour>
      <point x="666" y="339" type="curve" smooth="yes"/>
      <point x="664" y="179" type="line"/>
      <point x="748" y="179" type="line"/>
      <point x="748" y="233"/>
      <point x="748" y="243"/>
      <point x="748" y="266" type="curve" smooth="yes"/>
      <point x="748" y="383"/>
      <point x="810" y="441"/>
      <point x="871" y="441" type="curve" smooth="yes"/>
      <point x="933" y="441"/>
      <point x="994" y="383"/>
      <point x="994" y="206" type="curve" smooth="yes"/>
      <point x="994" y="163"/>
      <point x="994" y="43"/>
      <point x="993" y="0" type="curve"/>
      <point x="1076" y="0" type="line"/>
      <point x="1085" y="118"/>
      <point x="1090" y="186"/>
      <point x="1090" y="319" type="curve" smooth="yes"/>
      <point x="1090" y="526"/>
      <point x="979" y="620"/>
      <point x="872" y="620" type="curve" smooth="yes"/>
      <point x="766" y="620"/>
      <point x="669" y="526"/>
    </contour>
    <contour>
      <point x="663" y="189" type="curve"/>
      <point x="734" y="383" type="line"/>
      <point x="677" y="376"/>
      <point x="587" y="434"/>
      <point x="311" y="602" type="curve" smooth="yes"/>
      <point x="163" y="691"/>
      <point x="129" y="729"/>
      <point x="82" y="795" type="curve" smooth="yes"/>
      <point x="80" y="798"/>
      <point x="78" y="800"/>
      <point x="76" y="800" type="curve" smooth="yes"/>
      <point x="68" y="795"/>
      <point x="50" y="711"/>
      <point x="50" y="645" type="curve" smooth="yes"/>
      <point x="50" y="617"/>
      <point x="53" y="592"/>
      <point x="62" y="579" type="curve" smooth="yes"/>
      <point x="71" y="564"/>
      <point x="403" y="401"/>
      <point x="719" y="254" type="curve"/>
      <point x="654" y="345" type="line"/>
      <point x="658" y="304"/>
      <point x="664" y="300"/>
    </contour>
    <contour>
      <point x="248" y="-85" type="curve" smooth="yes"/>
      <point x="550" y="314"/>
      <point x="588" y="506"/>
      <point x="588" y="708" type="curve" smooth="yes"/>
      <point x="588" y="777"/>
      <point x="563" y="892"/>
      <point x="475" y="892" type="curve" smooth="yes"/>
      <point x="387" y="892"/>
      <point x="325" y="803"/>
      <point x="325" y="723" type="curve" smooth="yes"/>
      <point x="325" y="658"/>
      <point x="366" y="600"/>
      <point x="466" y="600" type="curve" smooth="yes"/>
      <point x="485" y="600"/>
      <point x="506" y="602"/>
      <point x="529" y="607" type="curve"/>
      <point x="506" y="650" type="line"/>
      <point x="507" y="642"/>
      <point x="507" y="633"/>
      <point x="507" y="624" type="curve" smooth="yes"/>
      <point x="507" y="415"/>
      <point x="342" y="139"/>
      <point x="219" y="-58" type="curve" smooth="yes"/>
      <point x="214" y="-67"/>
      <point x="210" y="-73"/>
      <point x="210" y="-80" type="curve" smooth="yes"/>
      <point x="210" y="-90"/>
      <point x="218" y="-97"/>
      <point x="227" y="-97" type="curve" smooth="yes"/>
      <point x="234" y="-97"/>
      <point x="241" y="-94"/>
    </contour>
  </outline>
</glyph>
<glyph name="three.numr" format="2">
  <advance width="561"/>
  <note>
uni2083
</note>
  <outline>
    <contour>
      <point x="289" y="576" type="curve"/>
      <point x="261" y="555" type="line"/>
      <point x="382" y="575"/>
      <point x="463" y="628"/>
      <point x="463" y="705" type="curve" smooth="yes"/>
      <point x="463" y="779"/>
      <point x="389" y="832"/>
      <point x="281" y="832" type="curve" smooth="yes"/>
      <point x="183" y="832"/>
      <point x="96" y="783"/>
      <point x="54" y="706" type="curve"/>
      <point x="108" y="669" type="line"/>
      <point x="133" y="700"/>
      <point x="169" y="717"/>
      <point x="214" y="717" type="curve" smooth="yes"/>
      <point x="266" y="717"/>
      <point x="291" y="693"/>
      <point x="291" y="663" type="curve" smooth="yes"/>
      <point x="291" y="619"/>
      <point x="251" y="587"/>
      <point x="150" y="576" type="curve"/>
      <point x="158" y="509" type="line"/>
      <point x="162" y="510"/>
      <point x="174" y="512"/>
      <point x="192" y="512" type="curve" smooth="yes"/>
      <point x="272" y="512"/>
      <point x="323" y="479"/>
      <point x="323" y="423" type="curve" smooth="yes"/>
      <point x="323" y="359"/>
      <point x="267" y="329"/>
      <point x="205" y="350" type="curve"/>
      <point x="247" y="329" type="line"/>
      <point x="172" y="393" type="line" smooth="yes"/>
      <point x="142" y="418"/>
      <point x="126" y="425"/>
      <point x="105" y="425" type="curve" smooth="yes"/>
      <point x="72" y="425"/>
      <point x="45" y="399"/>
      <point x="45" y="365" type="curve" smooth="yes"/>
      <point x="45" y="311"/>
      <point x="120" y="270"/>
      <point x="220" y="270" type="curve" smooth="yes"/>
      <point x="377" y="270"/>
      <point x="498" y="344"/>
      <point x="498" y="441" type="curve" smooth="yes"/>
      <point x="498" y="528"/>
      <point x="422" y="576"/>
    </contour>
  </outline>
</glyph>
<glyph name="two.dnom" format="2">
  <advance width="561"/>
  <note>
uni2082
</note>
  <outline>
    <contour>
      <point x="49" y="61" type="curve"/>
      <point x="51" y="-4" type="line"/>
      <point x="77" y="0"/>
      <point x="104" y="0"/>
      <point x="129" y="0" type="curve" smooth="yes"/>
      <point x="340" y="0" type="line" smooth="yes"/>
      <point x="358" y="0"/>
      <point x="459" y="-2"/>
      <point x="500" y="-6" type="curve"/>
      <point x="537" y="171" type="line"/>
      <point x="461" y="182" type="line"/>
      <point x="433" y="123" type="line"/>
      <point x="406" y="120"/>
      <point x="398" y="119"/>
      <point x="363" y="119" type="curve" smooth="yes"/>
      <point x="200" y="119" type="line"/>
      <point x="198" y="108" type="line"/>
      <point x="369" y="180"/>
      <point x="466" y="278"/>
      <point x="466" y="380" type="curve" smooth="yes"/>
      <point x="466" y="484"/>
      <point x="383" y="553"/>
      <point x="262" y="553" type="curve" smooth="yes"/>
      <point x="156" y="553"/>
      <point x="70" y="502"/>
      <point x="25" y="407" type="curve"/>
      <point x="80" y="369" type="line"/>
      <point x="108" y="411"/>
      <point x="148" y="433"/>
      <point x="194" y="433" type="curve" smooth="yes"/>
      <point x="257" y="433"/>
      <point x="292" y="401"/>
      <point x="292" y="346" type="curve" smooth="yes"/>
      <point x="292" y="261"/>
      <point x="216" y="167"/>
    </contour>
  </outline>
</glyph>
<glyph name="zain-syriac.fina" format="2">
  <advance width="541"/>
  <anchor x="221" y="705" name="above"/>
  <anchor x="50" y="705" name="aboveleft"/>
  <anchor x="356" y="-330" name="below"/>
  <anchor x="50" y="-330" name="belowleft"/>
  <outline>
    <component base="zain-syriac"/>
    <contour>
      <point x="281" y="194" type="line"/>
      <point x="281" y="64"/>
      <point x="315" y="-1"/>
      <point x="400" y="-1" type="curve" smooth="yes"/>
      <point x="561" y="-1" type="line"/>
      <point x="561" y="194" type="line"/>
    </contour>
  </outline>
</glyph>
